# Blender v3.4.1 OBJ File: 'May2024_Clown_Asset_Export.blend'
# www.blender.org
mtllib clown_bomb.mtl
o clown_bomb
v -0.000019 0.160578 -0.160579
v -0.000019 0.086904 -0.209806
v -0.000019 -0.086905 -0.209806
v -0.000019 -0.209807 -0.086905
v 0.031882 0.211283 -0.076998
v 0.061432 0.160578 -0.148356
v 0.080271 0.086904 -0.193836
v 0.086886 -0.000000 -0.209806
v 0.080271 -0.086905 -0.193836
v 0.061432 -0.160579 -0.148356
v 0.033238 -0.209807 -0.080290
v 0.058920 0.211283 -0.058932
v 0.113528 0.160578 -0.113547
v 0.148337 0.086904 -0.148356
v 0.160560 -0.000000 -0.160579
v 0.148337 -0.086905 -0.148356
v 0.113528 -0.160579 -0.113547
v 0.061432 -0.209807 -0.061451
v 0.076987 0.211283 -0.031893
v 0.148337 0.160578 -0.061451
v 0.193817 0.086904 -0.080290
v 0.209787 -0.000000 -0.086905
v 0.193817 -0.086905 -0.080290
v 0.148337 -0.160579 -0.061451
v 0.080271 -0.209807 -0.033257
v 0.083331 0.211283 0.000001
v 0.160560 0.160578 -0.000000
v 0.209787 0.086904 -0.000000
v 0.227074 -0.000000 -0.000000
v 0.209787 -0.086905 -0.000000
v 0.160560 -0.160579 -0.000000
v 0.086886 -0.209807 -0.000000
v 0.076987 0.211283 0.031895
v 0.148337 0.160578 0.061451
v 0.193817 0.086904 0.080289
v 0.209787 -0.000000 0.086904
v 0.193817 -0.086905 0.080289
v 0.148337 -0.160579 0.061451
v 0.080271 -0.209807 0.033257
v 0.058920 0.211283 0.058933
v 0.113528 0.160578 0.113546
v 0.148337 0.086904 0.148355
v 0.160560 -0.000000 0.160578
v 0.148337 -0.086905 0.148355
v 0.113528 -0.160579 0.113546
v 0.061432 -0.209807 0.061451
v 0.031882 0.211283 0.077000
v 0.061432 0.160578 0.148355
v 0.080271 0.086904 0.193835
v 0.086886 -0.000000 0.209806
v 0.080271 -0.086905 0.193835
v 0.061432 -0.160579 0.148355
v 0.033238 -0.209807 0.080289
v -0.000019 0.160578 0.160578
v -0.000019 0.086904 0.209806
v -0.000019 -0.000000 0.227092
v -0.000019 -0.086905 0.209806
v -0.000019 -0.160579 0.160578
v -0.000019 -0.209807 0.086904
v -0.031906 0.211283 0.077000
v -0.061470 0.160578 0.148355
v -0.080308 0.086904 0.193835
v -0.086923 -0.000000 0.209806
v -0.080308 -0.086905 0.193835
v -0.061470 -0.160579 0.148355
v -0.033276 -0.209807 0.080289
v -0.058945 0.211283 0.058933
v -0.113565 0.160578 0.113546
v -0.148374 0.086904 0.148355
v -0.160597 -0.000000 0.160578
v -0.148374 -0.086905 0.148355
v -0.113565 -0.160579 0.113546
v -0.061470 -0.209807 0.061450
v -0.000019 -0.227093 -0.000000
v -0.077011 0.211283 0.031895
v -0.148374 0.160578 0.061450
v -0.193854 0.086904 0.080289
v -0.209825 -0.000000 0.086904
v -0.193854 -0.086905 0.080289
v -0.148374 -0.160579 0.061450
v -0.080308 -0.209807 0.033257
v -0.083355 0.211283 0.000001
v -0.160597 0.160578 -0.000000
v -0.209825 0.086904 -0.000000
v -0.227111 -0.000000 -0.000000
v -0.209825 -0.086905 -0.000000
v -0.160597 -0.160579 -0.000000
v -0.086923 -0.209807 -0.000000
v -0.077011 0.211283 -0.031893
v -0.148374 0.160578 -0.061451
v -0.193854 0.086904 -0.080290
v -0.209825 -0.000000 -0.086905
v -0.193854 -0.086905 -0.080290
v -0.148374 -0.160579 -0.061451
v -0.080308 -0.209807 -0.033257
v -0.058945 0.211283 -0.058932
v -0.113565 0.160578 -0.113547
v -0.148374 0.086904 -0.148356
v -0.160597 -0.000000 -0.160579
v -0.148374 -0.086905 -0.148356
v -0.113565 -0.160579 -0.113547
v -0.061469 -0.209807 -0.061451
v -0.031906 0.211283 -0.076998
v -0.061469 0.160578 -0.148356
v -0.080308 0.086904 -0.193836
v -0.086923 -0.000000 -0.209806
v -0.080308 -0.086905 -0.193836
v -0.061469 -0.160579 -0.148356
v -0.033276 -0.209807 -0.080290
v -0.000012 0.211283 -0.083342
v -0.000019 -0.000000 -0.227093
v -0.000019 -0.160579 -0.160579
v -0.000012 0.211283 0.083344
v -0.000011 0.276536 0.048183
v -0.000011 0.276536 -0.048182
v 0.035881 0.276561 -0.035891
v 0.048172 0.276536 0.000001
v 0.035881 0.276561 0.035892
v -0.035903 0.276561 0.035892
v -0.048194 0.276536 0.000001
v -0.035903 0.276561 -0.035891
v 0.089855 0.268977 0.000001
v 0.066931 0.268977 -0.066942
v -0.066954 0.268977 -0.066942
v -0.089879 0.268977 0.000001
v -0.000012 0.268977 -0.089866
v -0.066954 0.268977 0.066943
v 0.066931 0.268977 0.066943
v -0.000012 0.268977 0.089867
v -0.000008 0.359195 0.000001
v -0.000008 0.347095 0.052653
v -0.000007 0.347095 -0.052652
v 0.039214 0.347122 -0.039221
v 0.052645 0.347095 0.000001
v 0.039214 0.347122 0.039222
v -0.039229 0.347122 0.039222
v -0.052660 0.347095 0.000001
v -0.039229 0.347122 -0.039221
vt 0.875005 0.049738
vt 0.875005 0.056107
vt 0.862751 0.056107
vt 0.875005 0.074245
vt 0.875005 0.101391
vt 0.845423 0.101391
vt 0.852364 0.074245
vt 0.875005 0.133411
vt 0.875005 0.165431
vt 0.845423 0.165431
vt 0.842985 0.133411
vt 0.875005 0.192576
vt 0.852364 0.192576
vt 0.846635 0.211258
vt 0.844297 0.211258
vt 0.841892 0.232516
vt 0.833169 0.074245
vt 0.852364 0.056107
vt 0.815838 0.133411
vt 0.820343 0.101391
vt 0.833169 0.192576
vt 0.820343 0.165431
vt 0.903375 0.211258
vt 0.905713 0.211258
vt 0.908119 0.232516
vt 0.796879 0.211258
vt 0.796879 0.211258
vt 0.796879 0.192576
vt 0.796879 0.192576
vt 0.796879 0.101391
vt 0.796879 0.133411
vt 0.796879 0.133411
vt 0.796879 0.101391
vt 0.796879 0.165431
vt 0.796879 0.165431
vt 0.846635 0.211258
vt 0.845423 0.056107
vt 0.796879 0.074245
vt 0.796879 0.074245
vt 0.796879 0.211258
vt 0.796879 0.192576
vt 0.796879 0.056107
vt 0.796879 0.056107
vt 0.842985 0.056107
vt 0.796879 0.101391
vt 0.796879 0.074245
vt 0.796879 0.165431
vt 0.796879 0.133411
vt 0.796879 0.211258
vt 0.796879 0.192576
vt 0.796879 0.056107
vt 0.903375 0.211258
vt 0.796879 0.165431
vt 0.796879 0.133411
vt 0.796879 0.211258
vt 0.796879 0.192576
vt 0.796879 0.074245
vt 0.796879 0.056107
vt 0.796879 0.101391
vt 0.853291 0.211258
vt 0.850340 0.232516
vt 0.907023 0.056107
vt 0.904585 0.056107
vt 0.796879 0.074245
vt 0.796879 0.056107
vt 0.796879 0.133411
vt 0.796879 0.101391
vt 0.796879 0.165431
vt 0.896719 0.211258
vt 0.899670 0.232516
vt 0.897644 0.056107
vt 0.896719 0.211258
vt 0.886757 0.211258
vt 0.897644 0.192576
vt 0.916838 0.192576
vt 0.929665 0.165431
vt 0.904585 0.165431
vt 0.863253 0.211258
vt 0.875008 0.232516
vt 0.887256 0.056107
vt 0.916838 0.074245
vt 0.929665 0.101391
vt 0.904585 0.101391
vt 0.897644 0.074245
vt 0.934170 0.133411
vt 0.907023 0.133411
vt 0.875008 0.211258
vt 0.875002 0.192576
vt 0.875002 0.056107
vt 0.875002 0.101391
vt 0.875002 0.074245
vt 0.875002 0.165431
vt 0.875002 0.133411
vt 0.852364 0.192576
vt 0.886757 0.211258
vt 0.875008 0.211258
vt 0.875008 0.232516
vt 0.833166 0.192576
vt 0.852364 0.074245
vt 0.862749 0.056107
vt 0.842985 0.133411
vt 0.845420 0.101391
vt 0.845420 0.165431
vt 0.833166 0.074245
vt 0.852364 0.056107
vt 0.815838 0.133411
vt 0.820340 0.101391
vt 0.820340 0.165431
vt 0.796879 0.211258
vt 0.796879 0.211258
vt 0.796879 0.192576
vt 0.796879 0.192576
vt 0.863253 0.211258
vt 0.845420 0.056107
vt 0.796879 0.074245
vt 0.796879 0.101391
vt 0.796879 0.101391
vt 0.796879 0.074245
vt 0.796879 0.133411
vt 0.796879 0.165431
vt 0.796879 0.165431
vt 0.796879 0.133411
vt 0.796879 0.211258
vt 0.796879 0.192576
vt 0.796879 0.056107
vt 0.796879 0.056107
vt 0.796879 0.101391
vt 0.796879 0.074245
vt 0.796879 0.165431
vt 0.796879 0.133411
vt 0.796879 0.211258
vt 0.796879 0.192576
vt 0.796879 0.056107
vt 0.842985 0.056107
vt 0.796879 0.074245
vt 0.796879 0.056107
vt 0.796879 0.133411
vt 0.796879 0.101391
vt 0.796879 0.165431
vt 0.853291 0.211258
vt 0.850340 0.232516
vt 0.907023 0.056107
vt 0.904587 0.056107
vt 0.796879 0.211258
vt 0.796879 0.192576
vt 0.796879 0.133411
vt 0.796879 0.101391
vt 0.796879 0.165431
vt 0.899670 0.232516
vt 0.897644 0.056107
vt 0.796879 0.074245
vt 0.896716 0.211258
vt 0.886755 0.211258
vt 0.897644 0.192576
vt 0.916841 0.192576
vt 0.796879 0.056107
vt 0.887259 0.056107
vt 0.916841 0.074245
vt 0.929667 0.101391
vt 0.904587 0.101391
vt 0.897644 0.074245
vt 0.934170 0.133411
vt 0.929667 0.165431
vt 0.904587 0.165431
vt 0.907023 0.133411
vt 0.863250 0.211258
vt 0.705259 0.125926
vt 0.700730 0.125935
vt 0.701956 0.151934
vt 0.706906 0.151924
vt 0.687508 0.125926
vt 0.674280 0.125935
vt 0.673057 0.151934
vt 0.687508 0.151924
vt 0.669751 0.125926
vt 0.674280 0.125935
vt 0.673057 0.151934
vt 0.668107 0.151924
vt 0.687508 0.125926
vt 0.700730 0.125935
vt 0.701956 0.151934
vt 0.687508 0.151924
vt 0.888230 0.235310
vt 0.892759 0.235301
vt 0.857251 0.235301
vt 0.861780 0.235310
vt 0.875008 0.235301
vt 0.861780 0.235310
vt 0.888230 0.235310
vt 0.875008 0.235301
vt 0.687508 0.156382
vt 0.853288 0.211258
vn -0.0000 -1.0000 0.0000
vn -0.0000 -0.9152 -0.4031
vn 0.1543 -0.9152 -0.3724
vn 0.0000 -0.6952 -0.7189
vn -0.0000 -0.3744 -0.9273
vn 0.3549 -0.3744 -0.8567
vn 0.2751 -0.6952 -0.6641
vn 0.0000 0.0000 -1.0000
vn -0.0000 0.3744 -0.9273
vn 0.3549 0.3744 -0.8567
vn 0.3827 0.0000 -0.9239
vn -0.0000 0.6978 -0.7163
vn 0.2741 0.6978 -0.6618
vn -0.9268 -0.1105 -0.3588
vn -0.9937 -0.1124 0.0000
vn -0.9982 -0.0602 -0.0000
vn 0.5083 -0.6952 -0.5083
vn 0.2850 -0.9152 -0.2850
vn 0.7071 -0.0000 -0.7071
vn 0.6557 -0.3744 -0.6557
vn 0.5065 0.6978 -0.5065
vn 0.6557 0.3744 -0.6557
vn 0.9268 -0.1105 0.3588
vn 0.9937 -0.1124 0.0000
vn 0.9982 -0.0602 -0.0000
vn 0.3881 0.8359 -0.3881
vn 0.5071 0.8359 -0.2100
vn 0.6618 0.6978 -0.2741
vn 0.9239 -0.0000 -0.3827
vn 0.8567 -0.3744 -0.3549
vn 0.8567 0.3744 -0.3549
vn -0.9268 -0.1105 0.3588
vn 0.3724 -0.9152 -0.1543
vn 0.6641 -0.6952 -0.2751
vn 0.5488 0.8359 0.0000
vn 0.7163 0.6978 -0.0000
vn 0.4031 -0.9152 0.0000
vn 0.9273 -0.3744 0.0000
vn 0.7189 -0.6952 -0.0000
vn 0.9273 0.3744 0.0000
vn 1.0000 -0.0000 0.0000
vn 0.5071 0.8359 0.2100
vn 0.6618 0.6978 0.2741
vn 0.9268 -0.1105 -0.3588
vn 0.8567 0.3744 0.3549
vn 0.9239 -0.0000 0.3827
vn 0.3881 0.8359 0.3881
vn 0.5065 0.6978 0.5065
vn 0.6641 -0.6952 0.2751
vn 0.3724 -0.9152 0.1543
vn 0.8567 -0.3744 0.3549
vn -0.6939 -0.1927 0.6939
vn -0.7042 -0.0907 0.7042
vn 0.5083 -0.6952 0.5083
vn 0.2850 -0.9152 0.2850
vn 0.7071 -0.0000 0.7071
vn 0.6557 -0.3744 0.6557
vn 0.6557 0.3744 0.6557
vn 0.6939 -0.1927 -0.6939
vn 0.7042 -0.0907 -0.7042
vn 0.2100 0.8359 0.5070
vn 0.2741 0.6978 0.6618
vn 0.3549 0.3744 0.8567
vn -0.3588 -0.1105 0.9268
vn 0.0000 -0.0602 0.9982
vn 0.1543 -0.9152 0.3724
vn 0.3549 -0.3744 0.8567
vn 0.2751 -0.6952 0.6641
vn 0.3827 -0.0000 0.9239
vn 0.0000 0.8360 0.5488
vn -0.0000 0.6978 0.7163
vn -0.0000 -0.9152 0.4031
vn -0.0000 -0.3744 0.9273
vn -0.0000 -0.6952 0.7189
vn -0.0000 0.3744 0.9273
vn -0.0000 -0.0000 1.0000
vn -0.2100 0.8360 0.5070
vn -0.2741 0.6978 0.6618
vn 0.3588 -0.1105 -0.9268
vn -0.0000 -0.1124 -0.9937
vn 0.0000 -0.0602 -0.9982
vn -0.3880 0.8360 0.3880
vn -0.5065 0.6978 0.5065
vn -0.2751 -0.6952 0.6641
vn -0.1543 -0.9152 0.3724
vn -0.3827 -0.0000 0.9239
vn -0.3549 -0.3744 0.8567
vn -0.3549 0.3744 0.8567
vn -0.5083 -0.6952 0.5083
vn -0.2850 -0.9152 0.2850
vn -0.7071 -0.0000 0.7071
vn -0.6557 -0.3744 0.6557
vn -0.6557 0.3744 0.6557
vn -0.0000 -0.1124 0.9937
vn -0.5070 0.8360 0.2100
vn -0.6618 0.6978 0.2741
vn -0.3588 -0.1105 -0.9268
vn -0.3724 -0.9152 0.1543
vn -0.8567 -0.3744 0.3549
vn -0.6641 -0.6952 0.2751
vn -0.8567 0.3744 0.3549
vn -0.9239 -0.0000 0.3827
vn -0.5488 0.8360 0.0000
vn -0.7163 0.6978 -0.0000
vn -0.9273 -0.3744 -0.0000
vn -0.7189 -0.6952 -0.0000
vn -0.9273 0.3744 -0.0000
vn -1.0000 -0.0000 -0.0000
vn -0.5070 0.8360 -0.2100
vn -0.6618 0.6978 -0.2741
vn -0.4031 -0.9152 -0.0000
vn 0.3588 -0.1105 0.9268
vn -0.6641 -0.6952 -0.2751
vn -0.3724 -0.9152 -0.1543
vn -0.9239 -0.0000 -0.3827
vn -0.8567 -0.3744 -0.3549
vn -0.8567 0.3744 -0.3549
vn -0.6939 -0.1927 -0.6939
vn -0.7042 -0.0907 -0.7042
vn -0.3880 0.8360 -0.3880
vn -0.5065 0.6978 -0.5065
vn -0.7071 -0.0000 -0.7071
vn -0.6557 -0.3744 -0.6557
vn -0.6557 0.3744 -0.6557
vn 0.6939 -0.1927 0.6939
vn 0.7042 -0.0907 0.7042
vn -0.2850 -0.9152 -0.2850
vn -0.5083 -0.6952 -0.5083
vn -0.2100 0.8360 -0.5070
vn -0.2741 0.6978 -0.6618
vn -0.1543 -0.9152 -0.3724
vn -0.3549 -0.3744 -0.8567
vn -0.2751 -0.6952 -0.6641
vn -0.3549 0.3744 -0.8567
vn -0.3827 0.0000 -0.9239
vn 0.0000 0.8360 -0.5488
vn 0.2100 0.8359 -0.5070
vn 0.9980 -0.0633 -0.0000
vn 0.9444 -0.0599 -0.3234
vn -0.0000 -0.0632 -0.9980
vn -0.3234 -0.0598 -0.9444
vn -0.9980 -0.0632 -0.0000
vn -0.9444 -0.0598 0.3234
vn -0.0000 -0.0632 0.9980
vn 0.3234 -0.0598 0.9444
vn -0.9444 -0.0598 -0.3234
vn 0.3234 -0.0598 -0.9444
vn 0.9444 -0.0599 0.3234
vn -0.3234 -0.0598 0.9444
vn 0.1201 0.9855 -0.1201
vn 0.1788 0.9839 0.0000
vn -0.1788 0.9839 -0.0000
vn -0.1201 0.9855 -0.1201
vn 0.0000 0.9839 -0.1788
vn -0.1201 0.9855 0.1201
vn 0.1201 0.9855 0.1201
vn 0.0000 0.9839 0.1788
vn 0.0000 0.9746 -0.2240
vn -0.0000 1.0000 0.0000
vn 0.1504 0.9771 -0.1504
vn 0.2240 0.9746 -0.0000
vn 0.1504 0.9771 0.1504
vn -0.0000 0.9746 0.2240
vn -0.1504 0.9771 0.1504
vn -0.2240 0.9746 -0.0000
vn -0.1504 0.9771 -0.1504
usemtl clown
s 1
f 74/1/1 4/2/2 11/3/3
f 112/4/4 3/5/5 9/6/6 10/7/7
f 111/8/8 2/9/9 7/10/10 8/11/11
f 4/2/2 112/4/4 10/7/7 11/3/3
f 3/5/5 111/8/8 8/11/11 9/6/6
f 2/9/9 1/12/12 6/13/13 7/10/10
f 89/14/14 82/15/15 125/16/16
f 11/3/3 10/7/7 17/17/17 18/18/18
f 9/6/6 8/11/11 15/19/19 16/20/20
f 7/10/10 6/13/13 13/21/21 14/22/22
f 33/23/23 26/24/24 122/25/25
f 74/1/1 11/3/3 18/18/18
f 10/7/7 9/6/6 16/20/20 17/17/17
f 8/11/11 7/10/10 14/22/22 15/19/19
f 12/26/26 19/27/27 20/28/28 13/29/21
f 16/30/20 15/31/19 22/32/29 23/33/30
f 14/34/22 13/29/21 20/28/28 21/35/31
f 82/15/15 75/36/32 125/16/16
f 74/1/1 18/18/18 25/37/33
f 17/38/17 16/30/20 23/33/30 24/39/34
f 15/31/19 14/34/22 21/35/31 22/32/29
f 19/27/27 26/40/35 27/41/36 20/28/28
f 18/42/18 17/38/17 24/39/34 25/43/33
f 74/1/1 25/37/33 32/44/37
f 24/39/34 23/33/30 30/45/38 31/46/39
f 22/32/29 21/35/31 28/47/40 29/48/41
f 26/40/35 33/49/42 34/50/43 27/41/36
f 25/43/33 24/39/34 31/46/39 32/51/37
f 23/33/30 22/32/29 29/48/41 30/45/38
f 21/35/31 20/28/28 27/41/36 28/47/40
f 26/24/24 19/52/44 122/25/25
f 29/48/41 28/47/40 35/53/45 36/54/46
f 33/49/42 40/55/47 41/56/48 34/50/43
f 32/51/37 31/46/39 38/57/49 39/58/50
f 30/45/38 29/48/41 36/54/46 37/59/51
f 28/47/40 27/41/36 34/50/43 35/53/45
f 75/36/32 67/60/52 127/61/53
f 74/1/1 32/62/37 39/63/50
f 31/46/39 30/45/38 37/59/51 38/57/49
f 39/58/50 38/57/49 45/64/54 46/65/55
f 37/59/51 36/54/46 43/66/56 44/67/57
f 35/53/45 34/50/43 41/56/48 42/68/58
f 19/52/44 12/69/59 123/70/60
f 74/1/1 39/63/50 46/71/55
f 38/57/49 37/59/51 44/67/57 45/64/54
f 36/54/46 35/53/45 42/68/58 43/66/56
f 40/72/47 47/73/61 48/74/62 41/75/48
f 42/76/58 41/75/48 48/74/62 49/77/63
f 60/78/64 129/79/65 127/61/53
f 74/1/1 46/71/55 53/80/66
f 45/81/54 44/82/57 51/83/67 52/84/68
f 43/85/56 42/76/58 49/77/63 50/86/69
f 47/73/61 113/87/70 54/88/71 48/74/62
f 46/71/55 45/81/54 52/84/68 53/80/66
f 44/82/57 43/85/56 50/86/69 51/83/67
f 74/1/1 53/80/66 59/89/72
f 52/84/68 51/83/67 57/90/73 58/91/74
f 50/86/69 49/77/63 55/92/75 56/93/76
f 113/87/70 60/78/77 61/94/78 54/88/71
f 53/80/66 52/84/68 58/91/74 59/89/72
f 51/83/67 50/86/69 56/93/76 57/90/73
f 49/77/63 48/74/62 54/88/71 55/92/75
f 5/95/79 110/96/80 126/97/81
f 60/78/77 67/60/82 68/98/83 61/94/78
f 59/89/72 58/91/74 65/99/84 66/100/85
f 57/90/73 56/93/76 63/101/86 64/102/87
f 55/92/75 54/88/71 61/94/78 62/103/88
f 5/95/79 126/97/81 123/70/60
f 74/1/1 59/89/72 66/100/85
f 58/91/74 57/90/73 64/102/87 65/99/84
f 56/93/76 55/92/75 62/103/88 63/101/86
f 66/100/85 65/99/84 72/104/89 73/105/90
f 64/102/87 63/101/86 70/106/91 71/107/92
f 62/103/88 61/94/78 68/98/83 69/108/93
f 60/78/64 113/87/94 129/79/65
f 74/1/1 66/100/85 73/105/90
f 65/99/84 64/102/87 71/107/92 72/104/89
f 63/101/86 62/103/88 69/108/93 70/106/91
f 67/109/82 75/110/95 76/111/96 68/112/83
f 110/96/80 103/113/97 126/97/81
f 74/1/1 73/105/90 81/114/98
f 72/115/89 71/116/92 79/117/99 80/118/100
f 70/119/91 69/120/93 77/121/101 78/122/102
f 75/110/95 82/123/103 83/124/104 76/111/96
f 73/125/90 72/115/89 80/118/100 81/126/98
f 71/116/92 70/119/91 78/122/102 79/117/99
f 69/120/93 68/112/83 76/111/96 77/121/101
f 80/118/100 79/117/99 86/127/105 87/128/106
f 78/122/102 77/121/101 84/129/107 85/130/108
f 82/123/103 89/131/109 90/132/110 83/124/104
f 81/126/98 80/118/100 87/128/106 88/133/111
f 79/117/99 78/122/102 85/130/108 86/127/105
f 77/121/101 76/111/96 83/124/104 84/129/107
f 113/87/94 47/73/112 129/79/65
f 74/1/1 81/114/98 88/134/111
f 88/133/111 87/128/106 94/135/113 95/136/114
f 86/127/105 85/130/108 92/137/115 93/138/116
f 84/129/107 83/124/104 90/132/110 91/139/117
f 103/113/97 96/140/118 124/141/119
f 74/1/1 88/142/111 95/143/114
f 87/128/106 86/127/105 93/138/116 94/135/113
f 85/130/108 84/129/107 91/139/117 92/137/115
f 89/131/109 96/144/120 97/145/121 90/132/110
f 93/138/116 92/137/115 99/146/122 100/147/123
f 91/139/117 90/132/110 97/145/121 98/148/124
f 47/73/112 40/72/125 128/149/126
f 74/1/1 95/143/114 102/150/127
f 94/135/113 93/138/116 100/147/123 101/151/128
f 92/137/115 91/139/117 98/148/124 99/146/122
f 96/152/120 103/153/129 104/154/130 97/155/121
f 95/136/114 94/135/113 101/151/128 102/156/127
f 74/1/1 102/150/127 109/157/131
f 101/158/128 100/159/123 107/160/132 108/161/133
f 99/162/122 98/163/124 105/164/134 106/165/135
f 103/153/129 110/96/136 1/12/12 104/154/130
f 102/150/127 101/158/128 108/161/133 109/157/131
f 100/159/123 99/162/122 106/165/135 107/160/132
f 98/163/124 97/155/121 104/154/130 105/164/134
f 89/14/14 125/16/16 124/141/119
f 106/165/135 105/164/134 2/9/9 111/8/8
f 110/96/136 5/166/137 6/13/13 1/12/12
f 109/157/131 108/161/133 112/4/4 4/2/2
f 107/160/132 106/165/135 111/8/8 3/5/5
f 105/164/134 104/154/130 1/12/12 2/9/9
f 33/23/23 122/25/25 128/149/126
f 74/1/1 109/157/131 4/2/2
f 108/161/133 107/160/132 3/5/5 112/4/4
f 12/69/59 5/95/79 123/70/60
f 117/167/138 116/168/139 133/169/139 134/170/138
f 115/171/140 121/172/141 138/173/141 132/174/140
f 96/140/118 89/14/14 124/141/119
f 126/97/81 103/113/97 124/141/119
f 120/175/142 119/176/143 136/177/143 137/178/142
f 114/179/144 118/180/145 135/181/145 131/182/144
f 129/79/65 47/73/112 128/149/126
f 40/72/125 33/23/23 128/149/126
f 121/172/146 120/175/142 137/178/142 138/173/146
f 116/168/147 115/171/140 132/174/140 133/169/147
f 125/16/16 75/36/32 127/61/53
f 67/60/52 60/78/64 127/61/53
f 118/180/148 117/167/138 134/170/138 135/181/148
f 119/176/149 114/179/144 131/182/144 136/177/149
f 122/25/25 19/52/44 123/70/60
f 116/183/150 117/184/151 122/25/151 123/70/150
f 120/185/152 121/186/153 124/141/153 125/16/152
f 121/186/153 115/187/154 126/97/154 124/141/153
f 115/187/154 116/183/150 123/70/150 126/97/154
f 119/188/155 120/185/152 125/16/152 127/61/155
f 117/184/151 118/189/156 128/149/156 122/25/151
f 118/189/156 114/190/157 129/79/157 128/149/156
f 114/190/157 119/188/155 127/61/155 129/79/157
f 132/174/158 130/191/159 133/169/160
f 133/169/160 130/191/159 134/170/161
f 134/170/161 130/191/159 135/181/162
f 135/181/162 130/191/159 131/182/163
f 131/182/163 130/191/159 136/177/164
f 136/177/164 130/191/159 137/178/165
f 137/178/165 130/191/159 138/173/166
f 138/173/166 130/191/159 132/174/158
f 5/166/137 12/192/26 13/21/21 6/13/13
