# Blender v3.4.1 OBJ File: 'May2024_Clown_Asset_Export.blend'
# www.blender.org
mtllib juggling_pin_yellow.mtl
o juggling_pin_yellow
v -0.000060 -0.388731 -0.046437
v 0.164613 0.686540 0.000000
v 0.186437 0.515596 0.000000
v 0.167674 0.344652 0.000000
v 0.116417 0.686540 0.116479
v 0.131903 0.515596 0.131964
v 0.118683 0.344652 0.118745
v -0.000061 0.686540 0.164674
v -0.000061 0.515596 0.186498
v -0.033001 -0.388731 -0.032941
v -0.046497 -0.388731 -0.000000
v -0.033001 -0.388731 0.032941
v -0.000060 -0.388731 0.046437
v -0.000060 -0.392834 -0.000000
v 0.032881 -0.388731 0.032941
v 0.046377 -0.388731 -0.000000
v 0.032881 -0.388731 -0.032941
v 0.056458 -0.369535 0.056518
v 0.064506 -0.341067 0.064566
v -0.000060 -0.341067 0.090997
v -0.000060 -0.369535 0.079658
v 0.090937 -0.341067 -0.000000
v 0.079598 -0.369535 -0.000000
v -0.000060 -0.369535 -0.079658
v -0.000060 -0.341067 -0.090997
v 0.064506 -0.341067 -0.064567
v 0.056458 -0.369535 -0.056518
v -0.056578 -0.369535 0.056518
v -0.064627 -0.341067 0.064566
v -0.079718 -0.369535 -0.000000
v -0.091057 -0.341067 -0.000000
v -0.064627 -0.341067 -0.064567
v -0.056578 -0.369535 -0.056518
v -0.000062 0.344652 0.167735
v -0.116540 0.686540 0.116479
v -0.132025 0.515596 0.131964
v -0.118806 0.344652 0.118745
v -0.164736 0.686540 0.000000
v -0.186559 0.515596 0.000000
v -0.167797 0.344652 0.000000
v -0.116540 0.686540 -0.116479
v -0.132025 0.515596 -0.131964
v -0.118807 0.344652 -0.118745
v 0.118683 0.344652 -0.118745
v 0.131902 0.515596 -0.131964
v 0.116417 0.686540 -0.116478
v -0.000062 0.686540 -0.164674
v -0.000061 0.515596 -0.186497
v -0.000062 0.344652 -0.167735
v 0.117288 0.217834 0.000000
v -0.000062 -0.290580 -0.077891
v -0.000061 0.091017 -0.064087
v -0.055278 -0.290572 -0.055216
v 0.083031 0.217839 0.083093
v -0.045464 0.091026 -0.045402
v -0.077953 -0.290581 -0.000000
v -0.000061 0.217834 0.117349
v -0.064149 0.091017 -0.000000
v -0.083154 0.217839 0.083093
v -0.055278 -0.290572 0.055216
v -0.045464 0.091026 0.045402
v -0.117411 0.217834 0.000000
v -0.000062 -0.290581 0.077891
v -0.000061 0.091017 0.064087
v 0.055154 -0.290572 0.055216
v -0.083155 0.217839 -0.083093
v 0.045341 0.091026 0.045402
v -0.000062 0.217834 -0.117349
v 0.077829 -0.290580 -0.000000
v 0.064026 0.091017 -0.000000
v 0.055154 -0.290572 -0.055216
v 0.083031 0.217839 -0.083093
v 0.045341 0.091026 -0.045402
v -0.000061 0.869799 0.000000
v -0.000061 0.831438 -0.127422
v -0.090169 0.831439 -0.090107
v -0.127484 0.831438 0.000000
v -0.090169 0.831439 0.090108
v -0.000061 0.831438 0.127422
v 0.090046 0.831439 0.090108
v 0.127361 0.831438 0.000000
v 0.090046 0.831439 -0.090107
v -0.067833 0.857485 -0.067772
v -0.000061 0.857485 -0.095842
v -0.095904 0.857485 0.000000
v -0.067833 0.857485 0.067772
v -0.000061 0.857485 0.095843
v 0.067711 0.857485 0.067772
v 0.095781 0.857485 0.000000
v 0.067710 0.857485 -0.067771
v -0.000060 0.082656 -0.044642
v -0.000061 -0.282218 -0.054258
v -0.038523 -0.282211 -0.038463
v -0.031687 0.082664 -0.031627
v -0.044702 0.082656 0.000000
v -0.054319 -0.282218 0.000000
v -0.000060 0.082656 0.044642
v -0.000061 -0.282218 0.054258
v 0.038402 -0.282211 0.038463
v 0.031566 0.082664 0.031627
v -0.031687 0.082664 0.031627
v -0.038523 -0.282211 0.038463
v 0.044582 0.082656 0.000000
v 0.031566 0.082664 -0.031627
v 0.038402 -0.282211 -0.038463
v 0.054197 -0.282218 0.000000
v -0.124283 0.601068 -0.124221
v -0.000061 0.601068 0.175586
v -0.175648 0.601068 0.000000
v -0.124283 0.601068 0.124221
v 0.175525 0.601068 0.000000
v 0.124160 0.601068 0.124222
v 0.124160 0.601068 -0.124221
v -0.000062 0.601068 -0.175585
v -0.177178 0.430124 0.000000
v 0.125293 0.430124 0.125355
v -0.000061 0.430124 0.177116
v -0.125416 0.430124 0.125354
v -0.125416 0.430124 -0.125354
v 0.125293 0.430124 -0.125354
v -0.000062 0.430124 -0.177116
v 0.177055 0.430124 0.000000
vt 0.206267 0.125765
vt 0.204570 0.114480
vt 0.211560 0.114480
vt 0.213963 0.125765
vt 0.187632 0.125765
vt 0.187632 0.114480
vt 0.168810 0.118499
vt 0.187632 0.118499
vt 0.187632 0.107214
vt 0.167300 0.107214
vt 0.168997 0.125765
vt 0.187632 0.125765
vt 0.187632 0.114480
vt 0.170693 0.114480
vt 0.163703 0.114480
vt 0.161300 0.125765
vt 0.201514 0.148914
vt 0.187632 0.148914
vt 0.187632 0.129783
vt 0.204944 0.129783
vt 0.201280 0.073207
vt 0.206906 0.073206
vt 0.211560 0.084644
vt 0.204570 0.084644
vt 0.201280 0.073207
vt 0.204570 0.084644
vt 0.206267 0.125765
vt 0.204570 0.114480
vt 0.301540 0.863082
vt 0.303940 0.847973
vt 0.299101 0.847973
vt 0.297390 0.863083
vt 0.273027 0.863082
vt 0.270627 0.847973
vt 0.275467 0.847973
vt 0.277177 0.863083
vt 0.212107 0.129783
vt 0.207264 0.148914
vt 0.206454 0.118499
vt 0.207963 0.107214
vt 0.214236 0.118499
vt 0.216366 0.107214
vt 0.187632 0.118499
vt 0.168810 0.118499
vt 0.167300 0.107214
vt 0.187632 0.107214
vt 0.187632 0.073206
vt 0.187632 0.084644
vt 0.287284 0.863082
vt 0.287284 0.847973
vt 0.299101 0.847973
vt 0.297390 0.863083
vt 0.168358 0.073206
vt 0.173984 0.073207
vt 0.170693 0.084644
vt 0.163703 0.084644
vt 0.168997 0.125765
vt 0.170693 0.114480
vt 0.201514 0.148914
vt 0.204944 0.129783
vt 0.187632 0.073206
vt 0.187632 0.084644
vt 0.161027 0.118499
vt 0.158898 0.107214
vt 0.287284 0.847973
vt 0.287284 0.863082
vt 0.173749 0.148914
vt 0.170320 0.129783
vt 0.187632 0.129783
vt 0.187632 0.148914
vt 0.297628 0.839291
vt 0.287284 0.839291
vt 0.287284 0.833437
vt 0.293313 0.833437
vt 0.287284 0.839291
vt 0.297628 0.839291
vt 0.293313 0.833437
vt 0.287284 0.833437
vt 0.276939 0.839291
vt 0.281254 0.833437
vt 0.287284 0.832186
vt 0.281254 0.833437
vt 0.278784 0.833437
vt 0.295784 0.833437
vt 0.272703 0.839291
vt 0.276939 0.839291
vt 0.301864 0.839291
vt 0.275467 0.847973
vt 0.206454 0.118499
vt 0.207963 0.107214
vt 0.277177 0.863083
vt 0.173984 0.073207
vt 0.170693 0.084644
vt 0.173749 0.148914
vt 0.170320 0.129783
vt 0.163156 0.129783
vt 0.168000 0.148914
vt 0.187632 0.061768
vt 0.177275 0.061769
vt 0.301540 0.863082
vt 0.297390 0.863083
vt 0.197990 0.061769
vt 0.202251 0.061768
vt 0.184852 0.029215
vt 0.195209 0.029214
vt 0.195209 0.029214
vt 0.184852 0.029215
vt 0.209828 0.029214
vt 0.205567 0.029215
vt 0.205567 0.029215
vt 0.209828 0.029214
vt 0.197990 0.061769
vt 0.287284 0.863082
vt 0.297390 0.863083
vt 0.173012 0.061768
vt 0.177275 0.061769
vt 0.180589 0.029214
vt 0.180589 0.029214
vt 0.187632 0.061768
vt 0.277177 0.863083
vt 0.205567 0.029215
vt 0.205567 0.029215
vt 0.287284 0.863082
vt 0.277177 0.863083
vt 0.187632 0.178750
vt 0.173749 0.178750
vt 0.177190 0.182189
vt 0.187632 0.182189
vt 0.172865 0.182189
vt 0.168000 0.178750
vt 0.173749 0.178750
vt 0.177190 0.182189
vt 0.187632 0.182189
vt 0.187632 0.178750
vt 0.201514 0.178750
vt 0.198073 0.182189
vt 0.202398 0.182189
vt 0.207264 0.178750
vt 0.198073 0.182189
vt 0.201514 0.178750
vt 0.187632 0.212025
vt 0.187632 0.212025
vt 0.177190 0.212025
vt 0.178161 0.212025
vt 0.172865 0.212025
vt 0.174239 0.212025
vt 0.177190 0.212025
vt 0.187632 0.212025
vt 0.198073 0.212025
vt 0.197102 0.212025
vt 0.202398 0.212025
vt 0.201025 0.212025
vt 0.198073 0.212025
vt 0.563927 0.796826
vt 0.553820 0.796829
vt 0.553569 0.834173
vt 0.563927 0.834169
vt 0.549307 0.834169
vt 0.549669 0.796826
vt 0.563927 0.796826
vt 0.574033 0.796829
vt 0.574284 0.834173
vt 0.563927 0.834169
vt 0.553569 0.834173
vt 0.553820 0.796829
vt 0.574284 0.834173
vt 0.578546 0.834169
vt 0.578182 0.796826
vt 0.574033 0.796829
vt 0.273027 0.863082
vt 0.184852 0.029215
vt 0.184852 0.029215
vt 0.195209 0.029214
vt 0.195209 0.029214
vt 0.204944 0.159619
vt 0.206454 0.148334
vt 0.214236 0.148334
vt 0.212107 0.159619
vt 0.187632 0.159619
vt 0.187632 0.148334
vt 0.170320 0.159619
vt 0.168810 0.148334
vt 0.161027 0.148334
vt 0.163156 0.159619
vt 0.170320 0.159619
vt 0.168810 0.148334
vt 0.204944 0.159619
vt 0.206454 0.148334
vt 0.187632 0.148334
vt 0.187632 0.159619
vt 0.168997 0.095929
vt 0.187632 0.095929
vt 0.161300 0.095929
vt 0.206267 0.095929
vt 0.187632 0.095929
vt 0.213963 0.095929
vt 0.168997 0.095929
vt 0.206267 0.095929
vn 0.7029 -0.1090 0.7029
vn 0.6875 -0.2341 0.6875
vn 0.9723 -0.2339 -0.0000
vn 0.9941 -0.1089 -0.0000
vn -0.0000 -0.1089 0.9941
vn -0.0000 -0.2339 0.9723
vn -0.7014 0.1269 -0.7014
vn 0.0000 0.1268 -0.9919
vn 0.0000 0.0088 -1.0000
vn -0.7071 0.0088 -0.7071
vn -0.7029 -0.1090 -0.7029
vn 0.0000 -0.1089 -0.9941
vn 0.0000 -0.2339 -0.9723
vn -0.6875 -0.2341 -0.6875
vn -0.9723 -0.2339 0.0000
vn -0.9941 -0.1089 0.0000
vn 0.6103 0.5049 0.6103
vn -0.0000 0.5049 0.8632
vn -0.0000 0.1856 0.9826
vn 0.6948 0.1856 0.6948
vn 0.6547 -0.3778 0.6547
vn 0.9261 -0.3773 -0.0000
vn 0.6547 -0.3778 -0.6547
vn 0.6875 -0.2341 -0.6875
vn 0.7029 -0.1090 -0.7029
vn 0.9677 0.2520 -0.0000
vn 0.9983 -0.0580 -0.0000
vn 0.7059 -0.0581 -0.7059
vn 0.6842 0.2527 -0.6842
vn -0.9678 0.2519 0.0000
vn -0.9983 -0.0580 0.0000
vn -0.7059 -0.0581 0.7059
vn -0.6842 0.2526 0.6842
vn 0.9826 0.1856 -0.0000
vn 0.8632 0.5049 -0.0000
vn 0.7014 0.1269 -0.7014
vn 0.7071 0.0088 -0.7071
vn 0.9919 0.1268 -0.0000
vn 1.0000 0.0088 -0.0000
vn -0.0000 0.1268 0.9919
vn -0.7014 0.1269 0.7014
vn -0.7071 0.0088 0.7071
vn -0.0000 0.0088 1.0000
vn 0.0000 -0.3773 -0.9261
vn -0.0000 0.2519 0.9677
vn 0.0000 -0.0580 0.9983
vn 0.7059 -0.0581 0.7059
vn 0.6842 0.2527 0.6842
vn -0.9261 -0.3773 0.0000
vn -0.6547 -0.3778 0.6547
vn -0.6875 -0.2341 0.6875
vn -0.7029 -0.1090 0.7029
vn 0.6103 0.5049 -0.6103
vn 0.6948 0.1856 -0.6948
vn -0.0000 -0.3773 0.9261
vn -0.9919 0.1268 0.0000
vn -1.0000 0.0088 0.0000
vn 0.0000 -0.0580 -0.9983
vn -0.0000 0.2519 -0.9677
vn -0.6103 0.5049 0.6103
vn -0.6948 0.1856 0.6948
vn 0.0000 0.1856 -0.9826
vn 0.0000 0.5049 -0.8632
vn 0.5562 -0.6174 0.5562
vn 0.0000 -0.6172 0.7868
vn 0.0000 -0.9374 0.3481
vn 0.2462 -0.9374 0.2462
vn -0.0000 -0.6172 -0.7868
vn 0.5562 -0.6174 -0.5562
vn 0.2462 -0.9374 -0.2462
vn -0.0000 -0.9374 -0.3481
vn -0.5562 -0.6174 0.5562
vn -0.2462 -0.9374 0.2462
vn 0.0000 -1.0000 0.0000
vn -0.2462 -0.9374 -0.2462
vn -0.3481 -0.9374 0.0000
vn 0.3481 -0.9374 -0.0000
vn -0.7868 -0.6172 0.0000
vn -0.5562 -0.6174 -0.5562
vn 0.7868 -0.6172 -0.0000
vn -0.7059 -0.0581 -0.7059
vn 0.7014 0.1269 0.7014
vn 0.7071 0.0088 0.7071
vn -0.6842 0.2526 -0.6842
vn -0.6547 -0.3778 -0.6547
vn -0.6103 0.5049 -0.6103
vn -0.6948 0.1856 -0.6948
vn -0.9826 0.1856 0.0000
vn -0.8632 0.5049 0.0000
vn -0.0000 -0.6612 -0.7502
vn -0.5306 -0.6610 -0.5306
vn 0.2353 0.9430 0.2353
vn 0.3336 0.9427 -0.0000
vn 0.5306 -0.6610 0.5306
vn 0.7502 -0.6612 -0.0000
vn 0.0000 -0.9187 -0.3950
vn -0.2789 -0.9189 -0.2789
vn 0.2789 -0.9189 0.2789
vn 0.3950 -0.9187 0.0000
vn 0.5306 -0.6610 -0.5306
vn 0.2353 0.9430 -0.2353
vn -0.0000 0.9427 -0.3336
vn -0.7502 -0.6612 0.0000
vn -0.5306 -0.6610 0.5306
vn -0.3950 -0.9187 0.0000
vn -0.0000 -0.6612 0.7502
vn -0.2353 0.9430 -0.2353
vn 0.2789 -0.9189 -0.2789
vn -0.2353 0.9430 0.2353
vn -0.0000 0.9427 0.3336
vn -0.3198 0.8919 -0.3198
vn 0.0000 0.8919 -0.4523
vn -0.4523 0.8919 0.0000
vn -0.3198 0.8919 0.3198
vn 0.0000 0.8919 0.4523
vn 0.3198 0.8919 0.3198
vn 0.4523 0.8919 -0.0000
vn 0.3198 0.8919 -0.3198
vn 0.0000 1.0000 0.0000
vn -0.0000 0.0264 -0.9997
vn -0.3801 0.0244 -0.9246
vn -0.9997 0.0264 0.0000
vn -0.9246 0.0244 -0.3801
vn -0.0000 0.0264 0.9997
vn 0.3801 0.0244 0.9246
vn -0.3801 0.0244 0.9246
vn 0.9246 0.0244 -0.3801
vn 0.9997 0.0264 -0.0000
vn 0.9246 0.0244 0.3801
vn -0.9246 0.0244 0.3801
vn 0.3801 0.0244 -0.9246
vn -0.3336 0.9427 -0.0000
vn -0.2789 -0.9189 0.2789
vn 0.0000 -0.9187 0.3950
usemtl clown
s 1
f 116/1/1 7/2/2 4/3/3 122/4/4
f 116/1/1 117/5/5 34/6/6 7/2/2
f 107/7/7 114/8/8 48/9/9 42/10/10
f 119/11/11 121/12/12 49/13/13 43/14/14
f 119/11/11 43/14/14 40/15/15 115/16/16
f 80/17/17 79/18/18 8/19/19 5/20/20
f 54/21/21 50/22/22 4/23/3 7/24/2
f 50/22/22 72/25/23 44/26/24 4/23/3
f 120/27/25 122/4/4 4/3/3 44/28/24
f 69/29/26 22/30/27 26/31/28 71/32/29
f 120/27/25 44/28/24 49/13/13 121/12/12
f 56/33/30 31/34/31 29/35/32 60/36/33
f 80/17/17 5/20/20 2/37/34 81/38/35
f 113/39/36 45/40/37 48/9/9 114/8/8
f 113/39/36 111/41/38 3/42/39 45/40/37
f 108/43/40 110/44/41 36/45/42 9/46/43
f 72/25/23 68/47/44 49/48/13 44/26/24
f 63/49/45 20/50/46 19/51/47 65/52/48
f 62/53/49 59/54/50 37/55/51 40/56/15
f 118/57/52 115/16/16 40/15/15 37/58/51
f 82/59/53 81/38/35 2/37/34 46/60/54
f 59/54/50 57/61/55 34/62/6 37/55/51
f 110/44/41 109/63/56 39/64/57 36/45/42
f 71/32/29 26/31/28 25/65/58 51/66/59
f 79/18/18 78/67/60 35/68/61 8/19/19
f 57/61/55 54/21/21 7/24/2 34/62/6
f 82/59/53 46/60/54 47/69/62 75/70/63
f 107/7/7 42/10/10 39/64/57 109/63/56
f 18/71/64 21/72/65 13/73/66 15/74/67
f 24/75/68 27/76/69 17/77/70 1/78/71
f 21/72/65 28/79/72 12/80/73 13/73/66
f 1/78/71 14/81/74 10/82/75
f 10/82/75 14/81/74 11/83/76
f 11/83/76 14/81/74 12/80/73
f 12/80/73 14/81/74 13/73/66
f 13/73/66 14/81/74 15/74/67
f 15/74/67 14/81/74 16/84/77
f 16/84/77 14/81/74 17/77/70
f 17/77/70 14/81/74 1/78/71
f 30/85/78 33/86/79 10/82/75 11/83/76
f 28/79/72 30/85/78 11/83/76 12/80/73
f 33/86/79 24/75/68 1/78/71 10/82/75
f 23/87/80 18/71/64 15/74/67 16/84/77
f 27/76/69 23/87/80 16/84/77 17/77/70
f 33/86/79 30/85/78 31/34/31 32/88/81
f 30/85/78 28/79/72 29/35/32 31/34/31
f 27/76/69 24/75/68 25/65/58 26/31/28
f 23/87/80 27/76/69 26/31/28 22/30/27
f 21/72/65 18/71/64 19/51/47 20/50/46
f 24/75/68 33/86/79 32/88/81 25/65/58
f 18/71/64 23/87/80 22/30/27 19/51/47
f 28/79/72 21/72/65 20/50/46 29/35/32
f 112/89/82 108/43/40 9/46/43 6/90/83
f 53/91/84 32/88/81 31/34/31 56/33/30
f 63/49/45 60/36/33 29/35/32 20/50/46
f 117/5/5 118/57/52 37/58/51 34/6/6
f 65/52/48 19/51/47 22/30/27 69/29/26
f 112/89/82 6/90/83 3/42/39 111/41/38
f 66/92/85 62/53/49 40/56/15 43/93/14
f 76/94/86 41/95/87 38/96/88 77/97/89
f 78/67/60 77/97/89 38/96/88 35/68/61
f 52/98/90 55/99/91 66/92/85 68/47/44
f 65/52/92 69/29/93 106/100/93 99/101/92
f 67/102/94 70/103/95 50/22/22 54/21/21
f 55/104/91 52/105/90 91/106/96 94/107/97
f 70/108/95 67/109/94 100/110/98 103/111/99
f 70/103/95 73/112/100 72/25/23 50/22/22
f 73/112/100 52/98/90 68/47/44 72/25/23
f 71/32/101 51/66/102 92/113/102 105/114/101
f 58/115/103 61/116/104 59/54/50 62/53/49
f 58/117/103 55/104/91 94/107/97 95/118/105
f 61/116/104 64/119/106 57/61/55 59/54/50
f 51/66/102 53/91/107 93/120/107 92/113/102
f 52/105/90 73/121/100 104/122/108 91/106/96
f 64/119/106 67/102/94 54/21/21 57/61/55
f 55/99/91 58/115/103 62/53/49 66/92/85
f 60/36/109 63/49/110 98/123/110 102/124/109
f 51/66/59 25/65/58 32/88/81 53/91/84
f 75/125/63 76/126/86 83/127/111 84/128/112
f 85/129/113 83/127/111 76/126/86 77/130/89
f 77/130/89 78/131/60 86/132/114 85/129/113
f 87/133/115 86/132/114 78/131/60 79/134/18
f 79/134/18 80/135/17 88/136/116 87/133/115
f 89/137/117 88/136/116 80/135/17 81/138/35
f 90/139/118 89/137/117 81/138/35 82/140/53
f 84/128/112 90/139/118 82/140/53 75/125/63
f 76/94/86 75/70/63 47/69/62 41/95/87
f 74/141/119 84/142/112 83/143/111
f 74/144/119 83/143/111 85/145/113
f 74/146/119 85/145/113 86/147/114
f 74/144/119 86/147/114 87/148/115
f 74/141/119 87/148/115 88/149/116
f 74/150/119 88/149/116 89/151/117
f 74/152/119 89/151/117 90/153/118
f 74/150/119 90/153/118 84/142/112
f 92/154/120 93/155/121 94/156/121 91/157/120
f 95/158/122 94/156/123 93/155/123 96/159/122
f 98/160/124 99/161/125 100/162/125 97/163/124
f 97/163/124 101/164/126 102/165/126 98/160/124
f 104/166/127 103/167/128 106/168/128 105/169/127
f 103/167/128 100/162/129 99/161/129 106/168/128
f 96/159/122 102/165/130 101/164/130 95/158/122
f 91/157/120 104/166/131 105/169/131 92/154/120
f 53/91/107 56/33/132 96/170/132 93/120/107
f 56/33/132 60/36/109 102/124/109 96/170/132
f 73/121/100 70/108/95 103/111/99 104/122/108
f 61/171/104 58/117/103 95/118/105 101/172/133
f 63/49/110 65/52/92 99/101/92 98/123/110
f 64/173/106 61/171/104 101/172/133 97/174/134
f 67/109/94 64/173/106 97/174/134 100/110/98
f 69/29/93 71/32/101 105/114/101 106/100/93
f 68/47/44 66/92/85 43/93/14 49/48/13
f 5/175/20 112/176/82 111/177/38 2/178/34
f 5/175/20 8/179/19 108/180/40 112/176/82
f 41/181/87 107/182/7 109/183/56 38/184/88
f 35/185/61 38/184/88 109/183/56 110/186/41
f 8/179/19 35/185/61 110/186/41 108/180/40
f 46/187/54 2/178/34 111/177/38 113/188/36
f 46/187/54 113/188/36 114/189/8 47/190/62
f 41/181/87 47/190/62 114/189/8 107/182/7
f 9/46/43 36/45/42 118/191/52 117/192/5
f 36/45/42 39/64/57 115/193/16 118/191/52
f 45/40/37 120/194/25 121/195/12 48/9/9
f 45/40/37 3/42/39 122/196/4 120/194/25
f 42/10/10 119/197/11 115/193/16 39/64/57
f 42/10/10 48/9/9 121/195/12 119/197/11
f 6/90/83 9/46/43 117/192/5 116/198/1
f 6/90/83 116/198/1 122/196/4 3/42/39
