{
    "asset" : {
        "generator" : "Khronos glTF Blender I/O v3.4.50",
        "version" : "2.0"
    },
    "scene" : 0,
    "scenes" : [
        {
            "name" : "Scene",
            "nodes" : [
                1
            ]
        }
    ],
    "nodes" : [
        {
            "mesh" : 0,
            "name" : "ActionFigure_Head_C_Headband",
            "rotation" : [
                -0.0580008290708065,
                0,
                0,
                0.9983165264129639
            ],
            "translation" : [
                1.6689300537109375e-05,
                0.5962104797363281,
                0.008896350860595703
            ]
        },
        {
            "children" : [
                0
            ],
            "mesh" : 1,
            "name" : "ActionFigure_Head_C"
        }
    ],
    "materials" : [
        {
            "name" : "actionfigure",
            "pbrMetallicRoughness" : {
                "baseColorTexture" : {
                    "index" : 0
                },
                "metallicFactor" : 0,
                "roughnessFactor" : 0.5
            }
        },
        {
            "name" : "actionfigure_face",
            "pbrMetallicRoughness" : {
                "baseColorTexture" : {
                    "index" : 1
                },
                "metallicFactor" : 0,
                "roughnessFactor" : 0.5
            }
        }
    ],
    "meshes" : [
        {
            "name" : "ActionFigure_Head_C_Headband",
            "primitives" : [
                {
                    "attributes" : {
                        "POSITION" : 0,
                        "TEXCOORD_0" : 1,
                        "NORMAL" : 2
                    },
                    "indices" : 3,
                    "material" : 0
                }
            ]
        },
        {
            "name" : "ActionFigure_Head_C",
            "primitives" : [
                {
                    "attributes" : {
                        "POSITION" : 4,
                        "TEXCOORD_0" : 5,
                        "NORMAL" : 6
                    },
                    "indices" : 7,
                    "material" : 0
                },
                {
                    "attributes" : {
                        "POSITION" : 8,
                        "TEXCOORD_0" : 9,
                        "NORMAL" : 10
                    },
                    "indices" : 11,
                    "material" : 1
                }
            ]
        }
    ],
    "textures" : [
        {
            "sampler" : 0,
            "source" : 0
        },
        {
            "sampler" : 0,
            "source" : 1
        }
    ],
    "images" : [
        {
            "mimeType" : "image/png",
            "name" : "actionfigure_texture",
            "uri" : "actionfigure_texture.png"
        },
        {
            "mimeType" : "image/png",
            "name" : "actionfigure_faces",
            "uri" : "actionfigure_faces.png"
        }
    ],
    "accessors" : [
        {
            "bufferView" : 0,
            "componentType" : 5126,
            "count" : 242,
            "max" : [
                0.5291099548339844,
                0.1339242309331894,
                0.5498231649398804
            ],
            "min" : [
                -0.5291712880134583,
                -0.08183664828538895,
                -0.5498213768005371
            ],
            "type" : "VEC3"
        },
        {
            "bufferView" : 1,
            "componentType" : 5126,
            "count" : 242,
            "type" : "VEC2"
        },
        {
            "bufferView" : 2,
            "componentType" : 5126,
            "count" : 242,
            "type" : "VEC3"
        },
        {
            "bufferView" : 3,
            "componentType" : 5123,
            "count" : 720,
            "type" : "SCALAR"
        },
        {
            "bufferView" : 4,
            "componentType" : 5126,
            "count" : 431,
            "max" : [
                0.5426634550094604,
                1.106380581855774,
                0.5055225491523743
            ],
            "min" : [
                -0.5426494479179382,
                -0.09840855747461319,
                -0.49292808771133423
            ],
            "type" : "VEC3"
        },
        {
            "bufferView" : 5,
            "componentType" : 5126,
            "count" : 431,
            "type" : "VEC2"
        },
        {
            "bufferView" : 6,
            "componentType" : 5126,
            "count" : 431,
            "type" : "VEC3"
        },
        {
            "bufferView" : 7,
            "componentType" : 5123,
            "count" : 1791,
            "type" : "SCALAR"
        },
        {
            "bufferView" : 8,
            "componentType" : 5126,
            "count" : 80,
            "max" : [
                0.4443255364894867,
                0.8240984082221985,
                0.45999976992607117
            ],
            "min" : [
                -0.44432568550109863,
                0,
                0
            ],
            "type" : "VEC3"
        },
        {
            "bufferView" : 9,
            "componentType" : 5126,
            "count" : 80,
            "type" : "VEC2"
        },
        {
            "bufferView" : 10,
            "componentType" : 5126,
            "count" : 80,
            "type" : "VEC3"
        },
        {
            "bufferView" : 11,
            "componentType" : 5123,
            "count" : 405,
            "type" : "SCALAR"
        }
    ],
    "bufferViews" : [
        {
            "buffer" : 0,
            "byteLength" : 2904,
            "byteOffset" : 0,
            "target" : 34962
        },
        {
            "buffer" : 0,
            "byteLength" : 1936,
            "byteOffset" : 2904,
            "target" : 34962
        },
        {
            "buffer" : 0,
            "byteLength" : 2904,
            "byteOffset" : 4840,
            "target" : 34962
        },
        {
            "buffer" : 0,
            "byteLength" : 1440,
            "byteOffset" : 7744,
            "target" : 34963
        },
        {
            "buffer" : 0,
            "byteLength" : 5172,
            "byteOffset" : 9184,
            "target" : 34962
        },
        {
            "buffer" : 0,
            "byteLength" : 3448,
            "byteOffset" : 14356,
            "target" : 34962
        },
        {
            "buffer" : 0,
            "byteLength" : 5172,
            "byteOffset" : 17804,
            "target" : 34962
        },
        {
            "buffer" : 0,
            "byteLength" : 3582,
            "byteOffset" : 22976,
            "target" : 34963
        },
        {
            "buffer" : 0,
            "byteLength" : 960,
            "byteOffset" : 26560,
            "target" : 34962
        },
        {
            "buffer" : 0,
            "byteLength" : 640,
            "byteOffset" : 27520,
            "target" : 34962
        },
        {
            "buffer" : 0,
            "byteLength" : 960,
            "byteOffset" : 28160,
            "target" : 34962
        },
        {
            "buffer" : 0,
            "byteLength" : 810,
            "byteOffset" : 29120,
            "target" : 34963
        }
    ],
    "samplers" : [
        {
            "magFilter" : 9729,
            "minFilter" : 9987
        }
    ],
    "buffers" : [
        {
            "byteLength" : 29932,
            "uri" : "ActionFigure_Head_C.bin"
        }
    ]
}
