# Blender v3.4.1 OBJ File: 'December2023_ActionFigure_Assets_Export.blend'
# www.blender.org
mtllib ActionFigure_Head_B_Cigar.mtl
o ActionFigure_Head_B_Cigar
v 0.101226 0.164364 0.545137
v 0.209127 0.077112 0.659938
v 0.125937 0.169400 0.525148
v 0.237075 0.082807 0.637331
v 0.141711 0.157514 0.499742
v 0.254915 0.069365 0.608597
v 0.142523 0.133247 0.478623
v 0.255833 0.041919 0.584712
v 0.128063 0.105867 0.469859
v 0.239479 0.010953 0.574800
v 0.103853 0.085833 0.476796
v 0.212099 -0.011704 0.582645
v 0.079142 0.080797 0.496785
v 0.184152 -0.017400 0.605253
v 0.063368 0.092683 0.522191
v 0.166312 -0.003957 0.633986
v 0.062556 0.116950 0.543310
v 0.165393 0.023488 0.657871
v 0.077017 0.144330 0.552075
v 0.181747 0.054454 0.667784
v 0.224307 0.020996 0.635271
v 0.152992 0.035199 0.643296
v 0.145733 0.015361 0.611638
v 0.171316 -0.004743 0.591896
v 0.198616 0.000821 0.569812
v 0.225363 0.022954 0.562147
v 0.233182 0.060175 0.563505
v 0.240441 0.080013 0.595162
v 0.214858 0.100117 0.614905
v 0.195713 0.087581 0.645315
v 0.069914 0.152991 0.477661
v 0.238029 0.052447 0.642763
v 0.221435 0.049065 0.656187
v 0.248622 0.044465 0.625702
v 0.249167 0.028169 0.611520
v 0.239457 0.009783 0.605635
v 0.223200 -0.003671 0.610293
v 0.206606 -0.007052 0.623717
v 0.196013 0.000929 0.640778
v 0.195468 0.017225 0.654959
v 0.205178 0.035612 0.660845
v 0.160812 0.072420 0.644653
v 0.076816 0.175398 0.511063
v 0.095156 0.179136 0.496227
v 0.106863 0.170315 0.477372
v 0.107465 0.152304 0.461698
v 0.096733 0.131984 0.455193
v 0.078766 0.117115 0.460342
v 0.060426 0.113378 0.475177
v 0.048719 0.122199 0.494033
v 0.048116 0.140209 0.509706
v 0.058848 0.160530 0.516211
vt 0.426604 0.923519
vt 0.421193 0.966843
vt 0.421193 0.954945
vt 0.429886 0.911897
vt 0.421193 0.923796
vt 0.426604 0.881469
vt 0.421193 0.885295
vt 0.429886 0.843859
vt 0.421193 0.854146
vt 0.426604 0.813432
vt 0.421193 0.842248
vt 0.426604 0.801809
vt 0.421193 0.854146
vt 0.426604 0.813432
vt 0.421193 0.885295
vt 0.429886 0.843859
vt 0.421193 0.923796
vt 0.426604 0.881469
vt 0.448233 0.852114
vt 0.438852 0.843846
vt 0.398404 0.918235
vt 0.403974 0.923144
vt 0.421193 0.954945
vt 0.429886 0.911897
vt 0.960451 0.344769
vt 0.960451 0.322228
vt 0.971744 0.331631
vt 0.971744 0.348361
vt 0.960451 0.372631
vt 0.917275 0.374091
vt 0.920996 0.343309
vt 0.435269 0.840689
vt 0.396276 0.916360
vt 0.438852 0.843846
vt 0.398404 0.918235
vt 0.448233 0.852114
vt 0.403974 0.923144
vt 0.469210 0.870601
vt 0.472794 0.873758
vt 0.418557 0.935995
vt 0.416429 0.934120
vt 0.459829 0.862333
vt 0.410859 0.929211
vt 0.469210 0.870601
vt 0.416429 0.934120
vt 0.459829 0.862333
vt 0.410859 0.929211
vt 0.960451 0.403782
vt 0.960451 0.395173
vt 0.971744 0.385769
vt 0.971744 0.392159
vt 0.971744 0.369040
vt 0.960451 0.395173
vt 0.971744 0.385769
vt 0.960451 0.372631
vt 0.971744 0.369040
vt 0.960451 0.344769
vt 0.971744 0.348361
vt 0.960451 0.322228
vt 0.971744 0.331631
vt 0.960451 0.313618
vt 0.971744 0.325241
vt 0.399492 0.937900
vt 0.917275 0.318406
vt 0.917275 0.308894
vt 0.917275 0.318406
vt 0.920996 0.343309
vt 0.917275 0.374091
vt 0.920996 0.398995
vt 0.917275 0.408507
vt 0.920996 0.398995
vt 0.975338 0.358700
vn -0.0508 0.7753 0.6296
vn -0.0531 0.7772 0.6270
vn 0.4208 0.8739 0.2434
vn 0.4248 0.8708 0.2474
vn 0.7235 0.6458 -0.2439
vn 0.7261 0.6438 -0.2415
vn 0.7390 0.1803 -0.6492
vn 0.7431 0.1771 -0.6454
vn 0.4547 -0.3444 -0.8214
vn 0.4601 -0.3488 -0.8165
vn -0.0113 -0.7215 -0.6923
vn -0.0035 -0.7287 -0.6848
vn -0.4782 -0.8225 -0.3079
vn -0.4735 -0.8272 -0.3027
vn -0.7796 -0.5979 0.1867
vn -0.7759 -0.6013 0.1907
vn -0.7950 -0.1324 0.5920
vn -0.7928 -0.1345 0.5945
vn -0.0096 -0.7912 0.6114
vn 0.1817 -0.9354 0.3032
vn 0.3514 -0.8274 0.4382
vn 0.2221 -0.7300 0.6464
vn -0.5177 0.3930 0.7600
vn -0.5140 0.3898 0.7641
vn 0.6544 0.2416 -0.7165
vn 0.3801 -0.2783 -0.8821
vn 0.2801 -0.1922 -0.9405
vn 0.5441 0.3078 -0.7805
vn 0.6393 0.7007 -0.3166
vn 0.4815 -0.8743 0.0607
vn 0.5539 -0.7861 0.2744
vn 0.7752 -0.6313 -0.0234
vn 0.7523 -0.6219 0.2175
vn 0.9506 -0.2992 0.0829
vn 0.8708 -0.3975 0.2894
vn 0.7494 0.1394 0.6473
vn 0.4496 0.0783 0.8898
vn 0.5323 -0.1425 0.8345
vn 0.7348 -0.1013 0.6706
vn 0.9407 -0.0048 0.3391
vn 0.8641 -0.1987 0.4624
vn 0.1559 -0.1647 0.9739
vn 0.3339 -0.3067 0.8913
vn -0.0195 -0.4969 0.8676
vn 0.2154 -0.5311 0.8195
vn -0.1269 0.8304 0.5425
vn 0.3405 0.9258 0.1640
vn 0.2413 0.9680 0.0691
vn -0.2100 0.8760 0.4341
vn 0.5293 0.7510 -0.3948
vn -0.5853 0.4514 0.6736
vn -0.6521 0.5102 0.5608
vn -0.8588 -0.0670 0.5080
vn -0.9161 0.0102 0.4007
vn -0.8436 -0.5260 0.1080
vn -0.9013 -0.4329 0.0151
vn -0.5435 -0.7516 -0.3737
vn -0.6133 -0.6500 -0.4488
vn -0.0768 -0.6563 -0.7506
vn -0.1620 -0.5580 -0.8139
vn 0.6005 -0.5134 0.6130
vn -0.6005 0.5134 -0.6130
vn -0.5768 0.7285 -0.3696
vn -0.4242 0.7596 -0.4930
vn -0.3269 0.6863 -0.6498
vn -0.3218 0.5365 -0.7802
vn -0.4111 0.3674 -0.8343
vn -0.5605 0.2438 -0.7914
vn -0.7131 0.2127 -0.6680
vn -0.8105 0.2861 -0.5112
vn -0.8155 0.4359 -0.3808
vn -0.7262 0.6049 -0.3267
usemtl actionfigure
s 1
f 30/1/1 2/2/2 4/3/3 29/4/4
f 29/4/4 4/3/3 6/5/5 28/6/6
f 28/6/6 6/5/5 8/7/7 27/8/8
f 27/8/8 8/7/7 10/9/9 26/10/10
f 26/10/10 10/9/9 12/11/11 25/12/12
f 25/12/12 12/11/11 14/13/13 24/14/14
f 24/14/14 14/13/13 16/15/15 23/16/16
f 23/16/16 16/15/15 18/17/17 22/18/18
f 16/19/19 14/20/20 38/21/21 39/22/22
f 22/18/18 18/17/17 20/23/23 42/24/24
f 42/24/24 20/23/23 2/2/2 30/1/1
f 7/25/25 9/26/26 47/27/27 46/28/28
f 5/29/29 28/30/6 27/31/8 7/25/25
f 14/20/20 12/32/30 37/33/31 38/21/21
f 12/32/30 10/34/32 36/35/33 37/33/31
f 10/34/32 8/36/34 35/37/35 36/35/33
f 4/38/36 2/39/37 33/40/38 32/41/39
f 8/36/34 6/42/40 34/43/41 35/37/35
f 6/42/40 4/38/36 32/41/39 34/43/41
f 2/39/37 20/44/42 41/45/43 33/40/38
f 20/44/42 18/46/44 40/47/45 41/45/43
f 18/46/44 16/19/19 39/22/22 40/47/45
f 1/48/46 3/49/47 44/50/48 43/51/49
f 5/29/29 7/25/25 46/28/28 45/52/50
f 3/49/47 5/29/29 45/52/50 44/50/48
f 19/53/51 1/48/46 43/51/49 52/54/52
f 17/55/53 19/53/51 52/54/52 51/56/54
f 15/57/55 17/55/53 51/56/54 50/58/56
f 13/59/57 15/57/55 50/58/56 49/60/58
f 11/61/59 13/59/57 49/60/58 48/62/60
f 9/26/26 11/61/59 48/62/60 47/27/27
f 21/63/61 32/41/39 33/40/38
f 21/63/61 34/43/41 32/41/39
f 21/63/61 35/37/35 34/43/41
f 21/63/61 36/35/33 35/37/35
f 21/63/61 37/33/31 36/35/33
f 21/63/61 38/21/21 37/33/31
f 21/63/61 39/22/22 38/21/21
f 21/63/61 40/47/45 39/22/22
f 21/63/61 41/45/43 40/47/45
f 21/63/61 33/40/38 41/45/43
f 7/25/25 27/31/8 26/64/10 9/26/26
f 9/26/26 26/64/10 25/65/12 11/61/59
f 11/61/59 25/65/12 24/66/14 13/59/57
f 13/59/57 24/66/14 23/67/16 15/57/55
f 15/57/55 23/67/16 22/68/18 17/55/53
f 17/55/53 22/68/18 42/69/24 19/53/51
f 19/53/51 42/69/24 30/70/1 1/48/46
f 3/49/47 29/71/4 28/30/6 5/29/29
f 1/48/46 30/70/1 29/71/4 3/49/47
f 31/72/62 43/51/63 44/50/64
f 31/72/62 44/50/64 45/52/65
f 31/72/62 45/52/65 46/28/66
f 31/72/62 46/28/66 47/27/67
f 31/72/62 47/27/67 48/62/68
f 31/72/62 48/62/68 49/60/69
f 31/72/62 49/60/69 50/58/70
f 31/72/62 50/58/70 51/56/71
f 31/72/62 51/56/71 52/54/72
f 31/72/62 52/54/72 43/51/63
