# Blender v3.4.1 OBJ File: 'December2023_ActionFigure_Assets_Export.blend'
# www.blender.org
mtllib ActionFigure_Head_C_Headband.mtl
o ActionFigure_Head_C_Headband
v -0.000014 0.560760 -0.520053
v 0.131875 0.562849 -0.502132
v 0.254776 0.568975 -0.449591
v 0.360313 0.578720 -0.366010
v 0.441295 0.591420 -0.257086
v 0.492202 0.606209 -0.130241
v 0.509565 0.622079 0.005881
v 0.492202 0.637950 0.142003
v 0.441295 0.652739 0.268848
v 0.360313 0.665438 0.377773
v 0.254776 0.675183 0.461354
v 0.131875 0.681309 0.513895
v -0.000014 0.683398 0.531815
v -0.131903 0.681309 0.513895
v -0.254804 0.675183 0.461354
v -0.360341 0.665438 0.377773
v -0.441323 0.652739 0.268848
v -0.492230 0.637950 0.142003
v -0.509594 0.622079 0.005881
v -0.492230 0.606209 -0.130241
v -0.441323 0.591420 -0.257086
v -0.360341 0.578720 -0.366010
v -0.254804 0.568975 -0.449591
v -0.131903 0.562849 -0.502132
v -0.000014 0.514925 0.018374
v -0.000014 0.492735 -0.532585
v -0.000014 0.729234 -0.006612
v -0.000014 0.624078 -0.547898
v 0.136938 0.494904 -0.513976
v 0.136938 0.626247 -0.529290
v 0.264556 0.501265 -0.459418
v 0.264556 0.632608 -0.474732
v 0.374145 0.511384 -0.372629
v 0.374145 0.642727 -0.387943
v 0.458235 0.524571 -0.259524
v 0.458235 0.655914 -0.274837
v 0.511097 0.539928 -0.127809
v 0.511097 0.671271 -0.143123
v 0.529127 0.556408 0.013538
v 0.529127 0.687751 -0.001775
v 0.511097 0.572887 0.154885
v 0.511097 0.704230 0.139572
v 0.458235 0.588244 0.286599
v 0.458235 0.719587 0.271286
v 0.374145 0.601431 0.399705
v 0.374145 0.732774 0.384392
v 0.264556 0.611550 0.486494
v 0.264556 0.742893 0.471181
v 0.136938 0.617911 0.541052
v 0.136938 0.749254 0.525739
v -0.000014 0.620081 0.559661
v -0.000014 0.751424 0.544347
v -0.136966 0.617911 0.541052
v -0.136966 0.749254 0.525739
v -0.264584 0.611550 0.486494
v -0.264584 0.742893 0.471181
v -0.374173 0.601431 0.399705
v -0.374173 0.732774 0.384392
v -0.458263 0.588244 0.286599
v -0.458263 0.719587 0.271286
v -0.511125 0.572887 0.154885
v -0.511125 0.704230 0.139571
v -0.529155 0.556408 0.013538
v -0.529155 0.687751 -0.001775
v -0.511124 0.539928 -0.127809
v -0.511124 0.671271 -0.143122
v -0.458263 0.524571 -0.259524
v -0.458263 0.655914 -0.274837
v -0.374173 0.511384 -0.372629
v -0.374173 0.642727 -0.387943
v -0.264584 0.501265 -0.459418
v -0.264584 0.632608 -0.474732
v -0.136966 0.494904 -0.513976
v -0.136966 0.626247 -0.529290
v -0.000014 0.669356 -0.520180
v 0.128774 0.671397 -0.502680
v 0.248785 0.677379 -0.451375
v 0.351841 0.686894 -0.369759
v 0.430918 0.699295 -0.263396
v 0.480628 0.713736 -0.139533
v 0.497584 0.729234 -0.006612
v 0.480628 0.744731 0.126309
v 0.430918 0.759172 0.250172
v 0.351841 0.771573 0.356535
v 0.248785 0.781089 0.438151
v 0.128774 0.787071 0.489456
v -0.000014 0.789111 0.506956
v -0.128802 0.787071 0.489456
v -0.248813 0.781089 0.438151
v -0.351868 0.771573 0.356535
v -0.430946 0.759172 0.250172
v -0.480656 0.744731 0.126309
v -0.497611 0.729234 -0.006612
v -0.480656 0.713736 -0.139533
v -0.430946 0.699295 -0.263396
v -0.351869 0.686894 -0.369759
v -0.248813 0.677379 -0.451375
v -0.128801 0.671397 -0.502680
v 0.128774 0.457088 -0.477694
v -0.000014 0.455047 -0.495193
v 0.248785 0.463069 -0.426388
v 0.351841 0.472585 -0.344773
v 0.430918 0.484986 -0.238409
v 0.480628 0.499427 -0.114547
v 0.497584 0.514925 0.018374
v 0.480628 0.530422 0.151296
v 0.430918 0.544863 0.275158
v 0.351841 0.557264 0.381522
v 0.248785 0.566780 0.463137
v 0.128774 0.572762 0.514443
v -0.000014 0.574802 0.531942
v -0.128802 0.572762 0.514443
v -0.248813 0.566780 0.463137
v -0.351868 0.557264 0.381522
v -0.430946 0.544863 0.275158
v -0.480656 0.530422 0.151295
v -0.497611 0.514925 0.018374
v -0.480656 0.499427 -0.114547
v -0.430946 0.484986 -0.238409
v -0.351869 0.472585 -0.344773
v -0.248813 0.463069 -0.426388
v -0.128801 0.457088 -0.477694
vt 0.542650 0.126562
vt 0.542176 0.133917
vt 0.555000 0.133666
vt 0.555000 0.126320
vt 0.579777 0.119418
vt 0.578860 0.096023
vt 0.588744 0.097153
vt 0.590039 0.120592
vt 0.596325 0.098627
vt 0.597914 0.122121
vt 0.601094 0.100342
vt 0.602862 0.123903
vt 0.602719 0.102184
vt 0.604551 0.125815
vt 0.601094 0.104025
vt 0.602862 0.127727
vt 0.596325 0.105741
vt 0.597914 0.129508
vt 0.588744 0.107214
vt 0.590039 0.131038
vt 0.578860 0.108344
vt 0.579777 0.132212
vt 0.567351 0.109055
vt 0.567825 0.132950
vt 0.555000 0.109298
vt 0.555000 0.133202
vt 0.542650 0.109055
vt 0.542176 0.132950
vt 0.531141 0.108344
vt 0.530226 0.132212
vt 0.521259 0.107214
vt 0.519963 0.131038
vt 0.513675 0.105741
vt 0.512088 0.129508
vt 0.508908 0.104025
vt 0.507138 0.127727
vt 0.507281 0.102184
vt 0.505449 0.125815
vt 0.508908 0.100342
vt 0.507138 0.123903
vt 0.513675 0.098627
vt 0.512088 0.122121
vt 0.521259 0.097153
vt 0.519963 0.120592
vt 0.531141 0.096023
vt 0.530226 0.119418
vt 0.542650 0.095312
vt 0.542176 0.118680
vt 0.567825 0.133917
vt 0.567351 0.126562
vt 0.567825 0.118680
vt 0.567351 0.095312
vt 0.555000 0.095070
vt 0.555000 0.118428
vt 0.531141 0.127273
vt 0.530226 0.134655
vt 0.521259 0.128403
vt 0.519963 0.135829
vt 0.513675 0.129877
vt 0.512088 0.137359
vt 0.508908 0.131592
vt 0.507138 0.139141
vt 0.507281 0.133434
vt 0.505449 0.141052
vt 0.508908 0.135275
vt 0.507138 0.142964
vt 0.513675 0.136991
vt 0.512088 0.144746
vt 0.521259 0.138464
vt 0.519963 0.146276
vt 0.531141 0.139594
vt 0.530226 0.147450
vt 0.542650 0.140305
vt 0.542176 0.148188
vt 0.555000 0.140548
vt 0.555000 0.148439
vt 0.567351 0.140305
vt 0.567825 0.148188
vt 0.578860 0.139594
vt 0.579777 0.147450
vt 0.588744 0.138464
vt 0.590039 0.146276
vt 0.596325 0.136991
vt 0.597914 0.144746
vt 0.601094 0.135275
vt 0.602862 0.142964
vt 0.602719 0.133434
vt 0.604551 0.141052
vt 0.601094 0.131592
vt 0.602862 0.139141
vt 0.596325 0.129877
vt 0.597914 0.137359
vt 0.588744 0.128403
vt 0.590039 0.135829
vt 0.578860 0.127273
vt 0.579777 0.134655
vt 0.555000 0.102803
vt 0.567825 0.103055
vt 0.567062 0.098667
vt 0.555000 0.098431
vt 0.567825 0.165167
vt 0.555000 0.164916
vt 0.555000 0.170169
vt 0.567062 0.170405
vt 0.579777 0.103793
vt 0.578300 0.099361
vt 0.579777 0.165905
vt 0.578300 0.171099
vt 0.590039 0.104967
vt 0.587949 0.100465
vt 0.590039 0.167079
vt 0.587949 0.172203
vt 0.597914 0.106496
vt 0.595354 0.101904
vt 0.597914 0.168609
vt 0.595354 0.173642
vt 0.602862 0.108278
vt 0.600009 0.103579
vt 0.602862 0.170391
vt 0.600009 0.175317
vt 0.604551 0.110190
vt 0.601598 0.105377
vt 0.604551 0.172302
vt 0.601598 0.177115
vt 0.602862 0.112102
vt 0.600009 0.107175
vt 0.602862 0.174214
vt 0.600009 0.178913
vt 0.597914 0.113883
vt 0.595354 0.108851
vt 0.597914 0.175996
vt 0.595354 0.180588
vt 0.590039 0.115413
vt 0.587949 0.110289
vt 0.590039 0.177526
vt 0.587949 0.182027
vt 0.579777 0.116587
vt 0.578300 0.111393
vt 0.579777 0.178700
vt 0.578300 0.183131
vt 0.567825 0.117325
vt 0.567062 0.112087
vt 0.567825 0.179438
vt 0.567062 0.183825
vt 0.555000 0.117577
vt 0.555000 0.112324
vt 0.555000 0.179689
vt 0.555000 0.184062
vt 0.542176 0.117325
vt 0.542940 0.112087
vt 0.542176 0.179438
vt 0.542940 0.183825
vt 0.530226 0.116587
vt 0.531702 0.111393
vt 0.530226 0.178700
vt 0.531702 0.183131
vt 0.519963 0.115413
vt 0.522051 0.110289
vt 0.519963 0.177526
vt 0.522051 0.182027
vt 0.512088 0.113883
vt 0.514645 0.108851
vt 0.512088 0.175996
vt 0.514645 0.180588
vt 0.507138 0.112102
vt 0.509989 0.107175
vt 0.507138 0.174214
vt 0.509989 0.178913
vt 0.505449 0.110190
vt 0.508403 0.105377
vt 0.505449 0.172302
vt 0.508403 0.177115
vt 0.507138 0.108278
vt 0.509989 0.103579
vt 0.507138 0.170391
vt 0.509989 0.175317
vt 0.512088 0.106496
vt 0.514645 0.101904
vt 0.512088 0.168609
vt 0.514645 0.173642
vt 0.519963 0.104967
vt 0.522051 0.100465
vt 0.519963 0.167079
vt 0.522051 0.172203
vt 0.530226 0.103793
vt 0.531702 0.099361
vt 0.530226 0.165905
vt 0.531702 0.171099
vt 0.542176 0.103055
vt 0.542940 0.098667
vt 0.542176 0.165167
vt 0.542940 0.170405
vt 0.555000 0.130240
vt 0.567062 0.123530
vt 0.555000 0.123294
vt 0.578300 0.124224
vt 0.587949 0.125328
vt 0.595354 0.126767
vt 0.600009 0.128442
vt 0.601598 0.130240
vt 0.600009 0.132038
vt 0.595354 0.133713
vt 0.587949 0.135152
vt 0.578300 0.136256
vt 0.567062 0.136950
vt 0.555000 0.137187
vt 0.542940 0.136950
vt 0.531702 0.136256
vt 0.522051 0.135152
vt 0.514645 0.133713
vt 0.509989 0.132038
vt 0.508403 0.130240
vt 0.509989 0.128442
vt 0.514645 0.126767
vt 0.522051 0.125328
vt 0.531702 0.124224
vt 0.542940 0.123530
vt 0.555000 0.089752
vt 0.555000 0.082806
vt 0.567062 0.083042
vt 0.578300 0.083736
vt 0.587949 0.084840
vt 0.595354 0.086279
vt 0.600009 0.087954
vt 0.601598 0.089752
vt 0.600009 0.091550
vt 0.595354 0.093226
vt 0.587949 0.094664
vt 0.578300 0.095768
vt 0.567062 0.096462
vt 0.555000 0.096699
vt 0.542940 0.096462
vt 0.531702 0.095768
vt 0.522051 0.094664
vt 0.514645 0.093226
vt 0.509989 0.091550
vt 0.508403 0.089752
vt 0.509989 0.087954
vt 0.514645 0.086279
vt 0.522051 0.084840
vt 0.531702 0.083736
vt 0.542940 0.083042
vn -0.2684 -0.1116 -0.9568
vn -0.2557 -0.3979 -0.8811
vn 0.0000 -0.4026 -0.9154
vn -0.0000 -0.1158 -0.9933
vn 0.4910 0.1942 -0.8492
vn 0.5147 -0.0993 -0.8516
vn 0.7207 -0.0803 -0.6886
vn 0.6888 0.2097 -0.6939
vn 0.8742 -0.0562 -0.4822
vn 0.8370 0.2302 -0.4965
vn 0.9684 -0.0289 -0.2479
vn 0.9282 0.2546 -0.2714
vn 1.0000 0.0000 0.0000
vn 0.9589 0.2818 -0.0329
vn 0.9684 0.0289 0.2479
vn 0.9282 0.3102 0.2055
vn 0.8742 0.0562 0.4822
vn 0.8370 0.3382 0.4302
vn 0.7207 0.0803 0.6886
vn 0.6888 0.3637 0.6271
vn 0.5147 0.0993 0.8516
vn 0.4910 0.3843 0.7818
vn 0.2684 0.1116 0.9568
vn 0.2557 0.3979 0.8811
vn -0.0000 0.1158 0.9933
vn 0.0000 0.4026 0.9154
vn -0.2684 0.1116 0.9568
vn -0.2557 0.3979 0.8811
vn -0.5147 0.0993 0.8516
vn -0.4910 0.3843 0.7818
vn -0.7207 0.0803 0.6886
vn -0.6888 0.3637 0.6271
vn -0.8742 0.0562 0.4822
vn -0.8370 0.3382 0.4302
vn -0.9684 0.0289 0.2479
vn -0.9282 0.3102 0.2055
vn -1.0000 0.0000 -0.0000
vn -0.9589 0.2818 -0.0329
vn -0.9684 -0.0289 -0.2479
vn -0.9282 0.2546 -0.2714
vn -0.8742 -0.0562 -0.4822
vn -0.8370 0.2302 -0.4965
vn -0.7207 -0.0803 -0.6886
vn -0.6888 0.2097 -0.6939
vn -0.5147 -0.0993 -0.8516
vn -0.4910 0.1942 -0.8492
vn -0.2557 0.1845 -0.9490
vn 0.2557 -0.3979 -0.8811
vn 0.2684 -0.1116 -0.9568
vn 0.2557 0.1845 -0.9490
vn 0.0000 0.1812 -0.9835
vn -0.4910 -0.3843 -0.7818
vn -0.6888 -0.3637 -0.6271
vn -0.8370 -0.3382 -0.4302
vn -0.9282 -0.3102 -0.2055
vn -0.9589 -0.2818 0.0329
vn -0.9282 -0.2546 0.2714
vn -0.8370 -0.2302 0.4965
vn -0.6888 -0.2097 0.6939
vn -0.4910 -0.1942 0.8492
vn -0.2557 -0.1845 0.9490
vn 0.0000 -0.1812 0.9835
vn 0.2557 -0.1845 0.9490
vn 0.4910 -0.1942 0.8492
vn 0.6888 -0.2097 0.6939
vn 0.8370 -0.2302 0.4965
vn 0.9282 -0.2546 0.2714
vn 0.9589 -0.2818 0.0329
vn 0.9282 -0.3102 -0.2055
vn 0.8370 -0.3382 -0.4302
vn 0.6888 -0.3637 -0.6271
vn 0.4910 -0.3843 -0.7818
vn -0.0000 -0.7043 -0.7099
vn 0.2102 -0.7001 -0.6824
vn 0.2118 -0.7000 -0.6820
vn 0.2102 0.5243 -0.8251
vn -0.0000 0.5221 -0.8529
vn 0.2118 0.5244 -0.8247
vn 0.4047 -0.6880 -0.6024
vn 0.4071 -0.6878 -0.6010
vn 0.4047 0.5310 -0.7445
vn 0.4071 0.5311 -0.7431
vn 0.5696 -0.6696 -0.4766
vn 0.5718 -0.6693 -0.4744
vn 0.5696 0.5420 -0.6178
vn 0.5718 0.5422 -0.6157
vn 0.6944 -0.6471 -0.3149
vn 0.6956 -0.6468 -0.3126
vn 0.6944 0.5573 -0.4553
vn 0.6956 0.5575 -0.4530
vn 0.7718 -0.6227 -0.1287
vn 0.7721 -0.6226 -0.1273
vn 0.7718 0.5764 -0.2685
vn 0.7721 0.5766 -0.2671
vn 0.7980 -0.5986 0.0698
vn 0.7980 0.5986 -0.0698
vn 0.7718 -0.5764 0.2685
vn 0.7721 -0.5766 0.2671
vn 0.7718 0.6227 0.1287
vn 0.7721 0.6226 0.1273
vn 0.6944 -0.5573 0.4553
vn 0.6956 -0.5575 0.4530
vn 0.6944 0.6471 0.3149
vn 0.6956 0.6468 0.3126
vn 0.5696 -0.5420 0.6178
vn 0.5718 -0.5422 0.6157
vn 0.5696 0.6696 0.4766
vn 0.5718 0.6693 0.4744
vn 0.4047 -0.5310 0.7445
vn 0.4071 -0.5311 0.7431
vn 0.4047 0.6880 0.6024
vn 0.4071 0.6878 0.6010
vn 0.2102 -0.5243 0.8251
vn 0.2118 -0.5244 0.8247
vn 0.2102 0.7001 0.6824
vn 0.2118 0.7000 0.6820
vn -0.0000 -0.5221 0.8529
vn -0.0000 0.7043 0.7099
vn -0.2102 -0.5243 0.8251
vn -0.2118 -0.5244 0.8247
vn -0.2102 0.7001 0.6824
vn -0.2118 0.7000 0.6820
vn -0.4047 -0.5310 0.7445
vn -0.4071 -0.5311 0.7431
vn -0.4047 0.6880 0.6024
vn -0.4071 0.6878 0.6010
vn -0.5696 -0.5420 0.6178
vn -0.5718 -0.5422 0.6157
vn -0.5696 0.6696 0.4766
vn -0.5718 0.6693 0.4744
vn -0.6944 -0.5573 0.4553
vn -0.6956 -0.5575 0.4530
vn -0.6944 0.6471 0.3149
vn -0.6956 0.6468 0.3126
vn -0.7718 -0.5764 0.2685
vn -0.7721 -0.5766 0.2671
vn -0.7718 0.6227 0.1287
vn -0.7721 0.6226 0.1273
vn -0.7980 -0.5986 0.0698
vn -0.7980 0.5986 -0.0698
vn -0.7718 -0.6227 -0.1287
vn -0.7721 -0.6226 -0.1273
vn -0.7718 0.5764 -0.2685
vn -0.7721 0.5766 -0.2671
vn -0.6944 -0.6471 -0.3149
vn -0.6956 -0.6468 -0.3126
vn -0.6944 0.5573 -0.4553
vn -0.6956 0.5575 -0.4530
vn -0.5696 -0.6696 -0.4766
vn -0.5718 -0.6693 -0.4744
vn -0.5696 0.5420 -0.6178
vn -0.5718 0.5422 -0.6157
vn -0.4047 -0.6880 -0.6024
vn -0.4071 -0.6878 -0.6010
vn -0.4047 0.5310 -0.7445
vn -0.4071 0.5311 -0.7431
vn -0.2102 -0.7001 -0.6824
vn -0.2118 -0.7000 -0.6820
vn -0.2102 0.5243 -0.8251
vn -0.2118 0.5244 -0.8247
vn -0.0000 0.9933 -0.1158
vn 0.0000 -0.9933 0.1158
usemtl actionfigure
s 1
f 24/1/1 74/2/2 28/3/3 1/4/4
f 31/5/5 3/6/6 4/7/7 33/8/8
f 33/8/8 4/7/7 5/9/9 35/10/10
f 35/10/10 5/9/9 6/11/11 37/12/12
f 37/12/12 6/11/11 7/13/13 39/14/14
f 39/14/14 7/13/13 8/15/15 41/16/16
f 41/16/16 8/15/15 9/17/17 43/18/18
f 43/18/18 9/17/17 10/19/19 45/20/20
f 45/20/20 10/19/19 11/21/21 47/22/22
f 47/22/22 11/21/21 12/23/23 49/24/24
f 49/24/24 12/23/23 13/25/25 51/26/26
f 51/26/26 13/25/25 14/27/27 53/28/28
f 53/28/28 14/27/27 15/29/29 55/30/30
f 55/30/30 15/29/29 16/31/31 57/32/32
f 57/32/32 16/31/31 17/33/33 59/34/34
f 59/34/34 17/33/33 18/35/35 61/36/36
f 61/36/36 18/35/35 19/37/37 63/38/38
f 63/38/38 19/37/37 20/39/39 65/40/40
f 65/40/40 20/39/39 21/41/41 67/42/42
f 67/42/42 21/41/41 22/43/43 69/44/44
f 69/44/44 22/43/43 23/45/45 71/46/46
f 71/46/46 23/45/45 24/47/1 73/48/47
f 1/4/4 28/3/3 30/49/48 2/50/49
f 29/51/50 2/52/49 3/6/6 31/5/5
f 73/48/47 24/47/1 1/53/4 26/54/51
f 23/55/45 72/56/52 74/2/2 24/1/1
f 22/57/43 70/58/53 72/56/52 23/55/45
f 21/59/41 68/60/54 70/58/53 22/57/43
f 20/61/39 66/62/55 68/60/54 21/59/41
f 19/63/37 64/64/56 66/62/55 20/61/39
f 18/65/35 62/66/57 64/64/56 19/63/37
f 17/67/33 60/68/58 62/66/57 18/65/35
f 16/69/31 58/70/59 60/68/58 17/67/33
f 15/71/29 56/72/60 58/70/59 16/69/31
f 14/73/27 54/74/61 56/72/60 15/71/29
f 13/75/25 52/76/62 54/74/61 14/73/27
f 12/77/23 50/78/63 52/76/62 13/75/25
f 11/79/21 48/80/64 50/78/63 12/77/23
f 10/81/19 46/82/65 48/80/64 11/79/21
f 9/83/17 44/84/66 46/82/65 10/81/19
f 8/85/15 42/86/67 44/84/66 9/83/17
f 7/87/13 40/88/68 42/86/67 8/85/15
f 6/89/11 38/90/69 40/88/68 7/87/13
f 5/91/9 36/92/70 38/90/69 6/89/11
f 4/93/7 34/94/71 36/92/70 5/91/9
f 3/95/6 32/96/72 34/94/71 4/93/7
f 2/50/49 30/49/48 32/96/72 3/95/6
f 26/97/73 29/98/74 99/99/75 100/100/73
f 30/101/76 28/102/77 75/103/77 76/104/78
f 29/98/74 31/105/79 101/106/80 99/99/75
f 32/107/81 30/101/76 76/104/78 77/108/82
f 31/105/79 33/109/83 102/110/84 101/106/80
f 34/111/85 32/107/81 77/108/82 78/112/86
f 33/109/83 35/113/87 103/114/88 102/110/84
f 36/115/89 34/111/85 78/112/86 79/116/90
f 35/113/87 37/117/91 104/118/92 103/114/88
f 38/119/93 36/115/89 79/116/90 80/120/94
f 37/117/91 39/121/95 105/122/95 104/118/92
f 40/123/96 38/119/93 80/120/94 81/124/96
f 39/121/95 41/125/97 106/126/98 105/122/95
f 42/127/99 40/123/96 81/124/96 82/128/100
f 41/125/97 43/129/101 107/130/102 106/126/98
f 44/131/103 42/127/99 82/128/100 83/132/104
f 43/129/101 45/133/105 108/134/106 107/130/102
f 46/135/107 44/131/103 83/132/104 84/136/108
f 45/133/105 47/137/109 109/138/110 108/134/106
f 48/139/111 46/135/107 84/136/108 85/140/112
f 47/137/109 49/141/113 110/142/114 109/138/110
f 50/143/115 48/139/111 85/140/112 86/144/116
f 49/141/113 51/145/117 111/146/117 110/142/114
f 52/147/118 50/143/115 86/144/116 87/148/118
f 51/145/117 53/149/119 112/150/120 111/146/117
f 54/151/121 52/147/118 87/148/118 88/152/122
f 53/149/119 55/153/123 113/154/124 112/150/120
f 56/155/125 54/151/121 88/152/122 89/156/126
f 55/153/123 57/157/127 114/158/128 113/154/124
f 58/159/129 56/155/125 89/156/126 90/160/130
f 57/157/127 59/161/131 115/162/132 114/158/128
f 60/163/133 58/159/129 90/160/130 91/164/134
f 59/161/131 61/165/135 116/166/136 115/162/132
f 62/167/137 60/163/133 91/164/134 92/168/138
f 61/165/135 63/169/139 117/170/139 116/166/136
f 64/171/140 62/167/137 92/168/138 93/172/140
f 63/169/139 65/173/141 118/174/142 117/170/139
f 66/175/143 64/171/140 93/172/140 94/176/144
f 65/173/141 67/177/145 119/178/146 118/174/142
f 68/179/147 66/175/143 94/176/144 95/180/148
f 67/177/145 69/181/149 120/182/150 119/178/146
f 70/183/151 68/179/147 95/180/148 96/184/152
f 69/181/149 71/185/153 121/186/154 120/182/150
f 72/187/155 70/183/151 96/184/152 97/188/156
f 71/185/153 73/189/157 122/190/158 121/186/154
f 74/191/159 72/187/155 97/188/156 98/192/160
f 73/189/157 26/97/73 100/100/73 122/190/158
f 28/102/77 74/191/159 98/192/160 75/103/77
f 26/54/51 1/53/4 2/52/49 29/51/50
f 27/193/161 76/194/161 75/195/161
f 27/193/161 77/196/161 76/194/161
f 27/193/161 78/197/161 77/196/161
f 27/193/161 79/198/161 78/197/161
f 27/193/161 80/199/161 79/198/161
f 27/193/161 81/200/161 80/199/161
f 27/193/161 82/201/161 81/200/161
f 27/193/161 83/202/161 82/201/161
f 27/193/161 84/203/161 83/202/161
f 27/193/161 85/204/161 84/203/161
f 27/193/161 86/205/161 85/204/161
f 27/193/161 87/206/161 86/205/161
f 27/193/161 88/207/161 87/206/161
f 27/193/161 89/208/161 88/207/161
f 27/193/161 90/209/161 89/208/161
f 27/193/161 91/210/161 90/209/161
f 27/193/161 92/211/161 91/210/161
f 27/193/161 93/212/161 92/211/161
f 27/193/161 94/213/161 93/212/161
f 27/193/161 95/214/161 94/213/161
f 27/193/161 96/215/161 95/214/161
f 27/193/161 97/216/161 96/215/161
f 27/193/161 98/217/161 97/216/161
f 27/193/161 75/195/161 98/217/161
f 25/218/162 100/219/162 99/220/162
f 25/218/162 99/220/162 101/221/162
f 25/218/162 101/221/162 102/222/162
f 25/218/162 102/222/162 103/223/162
f 25/218/162 103/223/162 104/224/162
f 25/218/162 104/224/162 105/225/162
f 25/218/162 105/225/162 106/226/162
f 25/218/162 106/226/162 107/227/162
f 25/218/162 107/227/162 108/228/162
f 25/218/162 108/228/162 109/229/162
f 25/218/162 109/229/162 110/230/162
f 25/218/162 110/230/162 111/231/162
f 25/218/162 111/231/162 112/232/162
f 25/218/162 112/232/162 113/233/162
f 25/218/162 113/233/162 114/234/162
f 25/218/162 114/234/162 115/235/162
f 25/218/162 115/235/162 116/236/162
f 25/218/162 116/236/162 117/237/162
f 25/218/162 117/237/162 118/238/162
f 25/218/162 118/238/162 119/239/162
f 25/218/162 119/239/162 120/240/162
f 25/218/162 120/240/162 121/241/162
f 25/218/162 121/241/162 122/242/162
f 25/218/162 122/242/162 100/219/162
