# Blender v3.4.1 OBJ File: 'December2023_ActionFigure_Assets_Export.blend'
# www.blender.org
mtllib Muzzleflash_Long.mtl
o Muzzleflash_Long
v -0.048407 -0.026831 0.115352
v -0.048443 0.032091 0.115352
v -0.032093 0.048443 0.115352
v 0.026825 0.048407 0.115352
v 0.048403 0.026827 0.115352
v 0.048439 -0.032095 0.115352
v 0.032089 -0.048446 0.115352
v -0.026829 -0.048411 0.115352
v -0.000002 -0.000002 -0.015919
v -0.035867 -0.019880 -0.007398
v -0.048407 -0.026831 0.009363
v -0.048443 0.032091 0.009363
v -0.035915 0.023791 -0.007393
v -0.032093 0.048443 0.009363
v -0.023793 0.035914 -0.007393
v 0.026825 0.048407 0.009363
v 0.019875 0.035866 -0.007398
v 0.048403 0.026827 0.009363
v 0.035864 0.019877 -0.007398
v 0.048439 -0.032095 0.009363
v 0.035911 -0.023795 -0.007393
v 0.032089 -0.048446 0.009363
v 0.023790 -0.035917 -0.007393
v -0.026829 -0.048411 0.009363
v -0.019879 -0.035870 -0.007398
v -0.032325 -0.064994 0.567711
v -0.036125 0.062966 0.585023
v -0.064947 -0.032395 0.585651
v -0.063213 0.035683 0.567765
v -0.060863 -0.127138 0.502909
v 0.127450 -0.067319 0.502857
v 0.060862 0.127137 0.502909
v -0.127451 0.067318 0.502857
v 0.062617 -0.120347 0.422053
v 0.120271 0.057370 0.422219
v 0.111060 0.058296 0.228171
v 0.057337 0.108714 0.228171
v -0.067228 0.111233 0.228171
v -0.111060 -0.058296 0.228171
v -0.108593 0.066476 0.228171
v -0.062617 0.120347 0.422053
v -0.120272 -0.057370 0.422219
v -0.057337 -0.108714 0.228171
v 0.067228 -0.111233 0.228171
v 0.108593 -0.066476 0.228171
v 0.036124 -0.062969 0.585024
v 0.063210 -0.035685 0.567764
v 0.064942 0.032391 0.585650
v 0.032321 0.064989 0.567710
v 0.070657 -0.168959 0.777993
v 0.166743 0.066158 0.778095
v -0.070658 0.168959 0.777993
v -0.166744 -0.066159 0.778095
v -0.080324 0.048140 0.707829
v -0.080333 -0.041665 0.707807
v -0.048136 0.080330 0.707829
v -0.041663 -0.080337 0.707806
v 0.048138 -0.080327 0.707829
v 0.080325 -0.048138 0.707830
v 0.080335 0.041667 0.707806
v 0.041665 0.080339 0.707805
v -0.000000 0.000001 1.257859
v -0.229366 0.095694 0.561556
v 0.090667 0.226856 0.561856
v -0.090668 -0.226858 0.561856
v 0.229364 -0.095696 0.561556
vt 0.311693 0.265910
vt 0.315852 0.265910
vt 0.313770 0.264802
vt 0.304213 0.265909
vt 0.304213 0.265909
vt 0.323328 0.265909
vt 0.323328 0.265909
vt 0.316573 0.268086
vt 0.326674 0.268086
vt 0.326674 0.281234
vt 0.316573 0.281234
vt 0.311693 0.265910
vt 0.326674 0.268086
vt 0.316573 0.268086
vt 0.316573 0.281234
vt 0.326674 0.281234
vt 0.310967 0.268086
vt 0.300871 0.268086
vt 0.300871 0.281234
vt 0.310967 0.281234
vt 0.300871 0.268086
vt 0.310967 0.268086
vt 0.310967 0.281234
vt 0.300871 0.281234
vt 0.315852 0.265910
vt 0.324083 0.306403
vt 0.344229 0.301165
vt 0.353706 0.494582
vt 0.330465 0.264906
vt 0.330460 0.263741
vt 0.334688 0.319715
vt 0.334688 0.319715
vt 0.346005 0.259531
vt 0.344229 0.254290
vt 0.368216 0.494582
vt 0.283312 0.254290
vt 0.303462 0.259528
vt 0.290856 0.494582
vt 0.342240 0.288562
vt 0.321314 0.288562
vt 0.306549 0.288562
vt 0.324083 0.259528
vt 0.336694 0.494582
vt 0.284737 0.288562
vt 0.285301 0.288562
vt 0.259329 0.494582
vt 0.316573 0.255533
vt 0.326674 0.255533
vt 0.342808 0.288562
vt 0.320992 0.288562
vt 0.300871 0.255533
vt 0.310967 0.255533
vt 0.306227 0.288562
vt 0.310967 0.255533
vt 0.300871 0.255533
vt 0.326674 0.255533
vt 0.316573 0.255533
vt 0.303873 0.254280
vt 0.281535 0.259531
vt 0.330465 0.311781
vt 0.318490 0.310619
vt 0.318375 0.311740
vt 0.330460 0.310616
vt 0.330626 0.494582
vt 0.346005 0.306406
vt 0.323667 0.301155
vt 0.297085 0.311781
vt 0.309051 0.310619
vt 0.273839 0.494582
vt 0.303462 0.306403
vt 0.283312 0.301165
vt 0.281535 0.306406
vt 0.303873 0.301155
vt 0.296915 0.494582
vt 0.309165 0.311740
vt 0.297089 0.310616
vt 0.319291 0.319716
vt 0.313770 0.494582
vt 0.318490 0.263744
vt 0.319291 0.319716
vt 0.297089 0.263741
vt 0.309165 0.264865
vt 0.308254 0.319716
vt 0.292853 0.319715
vt 0.309051 0.263744
vt 0.297085 0.264906
vt 0.292853 0.319715
vt 0.308254 0.319716
vt 0.318375 0.264865
vt 0.323667 0.254280
vn 0.5206 -0.1975 -0.8307
vn 0.1975 -0.5205 -0.8307
vn 0.0000 -0.0000 -1.0000
vn 0.2081 0.5265 -0.8243
vn 0.5265 0.2081 -0.8243
vn -0.2081 -0.5265 -0.8243
vn -0.5265 -0.2081 -0.8243
vn -0.8691 0.3698 -0.3285
vn -0.8729 -0.3678 -0.3207
vn -0.8856 -0.3631 -0.2896
vn -0.8884 0.3543 -0.2918
vn -0.1975 0.5205 -0.8307
vn -0.3678 -0.8729 -0.3207
vn 0.3699 -0.8691 -0.3285
vn 0.3599 -0.8852 -0.2947
vn -0.3600 -0.8876 -0.2874
vn 0.8691 -0.3698 -0.3285
vn 0.8729 0.3678 -0.3207
vn 0.8856 0.3631 -0.2896
vn 0.8884 -0.3543 -0.2918
vn 0.3678 0.8729 -0.3207
vn -0.3699 0.8691 -0.3285
vn -0.3600 0.8852 -0.2947
vn 0.3600 0.8876 -0.2874
vn -0.5206 0.1975 -0.8307
vn -0.9913 0.0262 -0.1288
vn -0.9164 -0.3759 -0.1371
vn -0.7172 -0.6843 -0.1318
vn -0.3858 -0.9225 0.0114
vn -0.9242 -0.3817 0.0118
vn -0.3677 0.5522 0.7482
vn -0.3231 0.5007 0.8030
vn -0.3501 -0.8354 -0.4237
vn 0.3680 -0.8466 -0.3846
vn -0.3429 -0.9151 -0.2120
vn 0.8331 -0.3496 -0.4286
vn 0.9181 -0.3332 -0.2147
vn 0.3231 -0.5007 0.8030
vn 0.8487 0.3655 -0.3822
vn 0.3501 0.8354 -0.4237
vn 0.3429 0.9151 -0.2120
vn -0.8487 -0.3655 -0.3822
vn -0.8331 0.3496 -0.4286
vn -0.3680 0.8466 -0.3846
vn -0.5063 -0.3217 0.8001
vn -0.9181 0.3332 -0.2147
vn 0.8190 0.3041 0.4866
vn 0.8716 0.1037 0.4792
vn 0.8347 0.2576 0.4867
vn -0.3091 0.8091 0.4997
vn -0.1509 0.8548 0.4965
vn -0.2556 0.8273 0.5002
vn -0.0336 -0.9903 -0.1345
vn -0.8190 -0.3041 0.4866
vn -0.8715 -0.1037 0.4792
vn -0.8347 -0.2576 0.4867
vn 0.9913 -0.0262 -0.1288
vn 0.0336 0.9903 -0.1345
vn 0.3091 -0.8092 0.4998
vn 0.1509 -0.8548 0.4965
vn 0.2556 -0.8273 0.5002
vn 0.9036 0.0306 0.4273
vn 0.4426 -0.7502 0.4913
vn -0.6849 -0.6261 0.3727
vn -0.7085 0.6969 -0.1112
vn -0.6140 0.6871 0.3885
vn -0.0019 -0.8997 0.4366
vn 0.6918 0.7140 -0.1080
vn -0.7389 -0.4781 0.4748
vn 0.6849 0.6261 0.3727
vn -0.9036 -0.0307 0.4273
vn 0.7085 -0.6969 -0.1112
vn -0.4426 0.7502 0.4913
vn 0.6140 -0.6871 0.3885
vn -0.6918 -0.7140 -0.1080
vn 0.0019 0.8997 0.4366
vn 0.7389 0.4782 0.4747
vn 0.3877 -0.9217 0.0073
vn -0.0000 0.0000 1.0000
vn -0.9924 -0.0029 -0.1230
vn -0.9184 0.3955 0.0071
vn -0.0263 0.9920 -0.1237
vn -0.3852 0.9105 -0.1503
vn -0.3877 0.9217 0.0073
vn 0.3858 0.9225 0.0113
vn 0.9924 0.0030 -0.1230
vn 0.9164 0.3759 -0.1371
vn 0.9242 0.3817 0.0118
vn 0.9184 -0.3955 0.0071
vn 0.0263 -0.9920 -0.1237
vn 0.3852 -0.9105 -0.1502
vn -0.6765 0.7196 -0.1566
vn 0.7172 0.6842 -0.1319
vn 0.6765 -0.7196 -0.1566
vn 0.3678 -0.5522 0.7482
vn 0.9199 0.3900 -0.0418
vn -0.3763 0.9259 -0.0346
vn 0.5370 0.4401 0.7197
vn -0.9199 -0.3900 -0.0418
vn 0.3763 -0.9259 -0.0346
vn 0.5063 0.3217 0.8001
vn -0.5370 -0.4401 0.7197
usemtl actionfigure
s 1
f 21/1/1 23/2/2 9/3/3
f 17/4/4 19/5/5 9/3/3
f 25/6/6 10/7/7 9/3/3
f 12/8/8 11/9/9 1/10/10 2/11/11
f 23/2/2 25/6/6 9/3/3
f 19/5/5 21/1/1 9/3/3
f 15/12/12 17/4/4 9/3/3
f 24/13/13 22/14/14 7/15/15 8/16/16
f 20/17/17 18/18/18 5/19/19 6/20/20
f 16/21/21 14/22/22 3/23/23 4/24/24
f 11/9/9 24/13/13 8/16/16 1/10/10
f 13/25/25 15/12/12 9/3/3
f 22/14/14 20/17/17 6/20/20 7/15/15
f 18/18/18 16/21/21 4/24/24 5/19/19
f 14/22/22 12/8/8 2/11/11 3/23/23
f 13/25/25 10/7/7 11/9/9 12/8/8
f 15/12/12 13/25/25 12/8/8 14/22/22
f 17/4/4 15/12/12 14/22/22 16/21/21
f 19/5/5 17/4/4 16/21/21 18/18/18
f 21/1/1 19/5/5 18/18/18 20/17/17
f 23/2/2 21/1/1 20/17/17 22/14/14
f 25/6/6 23/2/2 22/14/14 24/13/13
f 10/7/7 25/6/6 24/13/13 11/9/9
f 10/7/7 13/25/25 9/3/3
f 33/26/26 42/27/26 53/28/26
f 28/29/27 26/30/28 57/31/29 55/32/30
f 30/33/31 42/34/31 65/35/31
f 35/36/32 31/37/32 66/38/32
f 43/39/33 44/40/34 65/35/35
f 44/40/34 45/41/36 66/38/37
f 42/34/38 33/42/38 63/43/38
f 36/44/39 37/45/40 64/46/41
f 2/47/11 1/48/10 39/49/42 40/50/43
f 4/51/24 3/52/23 38/53/44 37/45/40
f 6/54/20 5/55/19 36/44/39 45/41/36
f 8/56/16 7/57/15 44/40/34 43/39/33
f 3/52/23 2/47/11 40/50/43 38/53/44
f 5/55/19 4/51/24 37/45/40 36/44/39
f 7/57/15 6/54/20 45/41/36 44/40/34
f 1/48/10 8/56/16 43/39/33 39/49/42
f 41/58/45 32/59/45 64/46/45
f 38/53/44 40/50/43 63/43/46
f 28/60/47 29/61/48 53/28/49
f 46/62/50 26/63/51 50/64/52
f 30/65/53 34/66/53 50/64/53
f 48/67/54 47/68/55 51/69/56
f 31/70/57 35/71/57 51/69/57
f 32/72/58 41/73/58 52/74/58
f 27/75/59 49/76/60 52/74/61
f 49/76/62 32/72/62 52/74/62
f 29/61/63 27/75/59 52/74/61
f 33/26/64 29/61/64 52/74/64
f 41/73/65 33/26/65 52/74/65
f 32/72/66 49/76/66 51/69/66
f 47/68/67 31/70/67 51/69/67
f 35/71/68 32/72/68 51/69/68
f 49/76/69 48/67/54 51/69/56
f 31/70/70 47/68/70 50/64/70
f 26/63/71 30/65/71 50/64/71
f 34/66/72 31/70/72 50/64/72
f 47/68/73 46/62/50 50/64/52
f 30/65/74 26/63/74 53/28/74
f 42/27/75 30/65/75 53/28/75
f 29/61/76 33/26/76 53/28/76
f 26/63/77 28/60/47 53/28/49
f 57/31/29 58/77/78 62/78/79
f 29/79/80 28/29/27 55/32/30 54/80/81
f 49/81/82 27/82/83 56/83/84 61/84/85
f 47/85/86 48/86/87 60/87/88 59/88/89
f 26/30/90 46/89/91 58/77/78 57/31/29
f 27/82/83 29/79/92 54/80/81 56/83/84
f 48/86/87 49/81/93 61/84/85 60/87/88
f 46/89/91 47/85/94 59/88/89 58/77/78
f 56/83/84 54/80/81 62/78/79
f 60/87/88 61/84/85 62/78/79
f 58/77/78 59/88/89 62/78/79
f 55/32/30 57/31/29 62/78/79
f 54/80/81 55/32/30 62/78/79
f 61/84/85 56/83/84 62/78/79
f 59/88/89 60/87/88 62/78/79
f 32/59/95 35/36/95 64/46/95
f 37/45/40 38/53/44 64/46/41
f 35/71/96 36/44/39 64/46/41
f 38/53/44 41/73/97 64/46/41
f 33/42/98 41/58/98 63/43/98
f 40/50/43 39/49/42 63/43/46
f 41/73/97 38/53/44 63/43/46
f 39/49/42 42/27/99 63/43/46
f 44/40/34 34/66/100 65/35/35
f 34/90/101 30/33/101 65/35/101
f 39/49/42 43/39/33 65/35/35
f 42/27/99 39/49/42 65/35/35
f 31/37/102 34/90/102 66/38/102
f 45/41/36 36/44/39 66/38/37
f 34/66/100 44/40/34 66/38/37
f 36/44/39 35/71/96 66/38/37
