# Blender v3.4.1 OBJ File: 'December2023_ActionFigure_Assets_Export.blend'
# www.blender.org
mtllib Muzzleflash.mtl
o Muzzleflash
v -0.015257 -0.053201 0.110581
v -0.056946 -0.011562 0.110581
v -0.056947 0.011561 0.110581
v -0.015261 0.053197 0.110581
v 0.015257 0.053196 0.110581
v 0.056946 0.011557 0.110581
v 0.056947 -0.011566 0.110581
v 0.015261 -0.053202 0.110581
v -0.000000 -0.000002 -0.015919
v -0.011304 -0.039419 -0.007398
v -0.015257 -0.053201 0.009363
v -0.056946 -0.011562 0.009363
v -0.042218 -0.008572 -0.007393
v -0.056947 0.011561 0.009363
v -0.042219 0.008571 -0.007393
v -0.015261 0.053197 0.009363
v -0.011307 0.039415 -0.007398
v 0.015257 0.053196 0.009363
v 0.011304 0.039414 -0.007398
v 0.056946 0.011557 0.009363
v 0.042218 0.008567 -0.007393
v 0.056947 -0.011566 0.009363
v 0.042219 -0.008576 -0.007393
v 0.015261 -0.053202 0.009363
v 0.011307 -0.039420 -0.007398
v 0.023101 -0.068815 0.336760
v -0.070068 0.018979 0.345416
v -0.023018 -0.068831 0.345730
v -0.069930 -0.019466 0.336787
v 0.046864 -0.132937 0.304360
v 0.137722 0.042519 0.304333
v -0.046864 0.132935 0.304360
v -0.137722 -0.042520 0.304333
v 0.129375 -0.040822 0.263932
v 0.044478 0.125611 0.264014
v 0.037310 0.119753 0.166990
v -0.036329 0.117416 0.166990
v -0.126191 0.031116 0.166990
v -0.037310 -0.119753 0.166990
v -0.123793 -0.029781 0.166990
v -0.129375 0.040822 0.263932
v -0.044478 -0.125612 0.264014
v 0.036329 -0.117415 0.166990
v 0.126191 -0.031116 0.166990
v 0.123793 0.029781 0.166990
v 0.070069 -0.018982 0.345417
v 0.069929 0.019463 0.336787
v 0.023017 0.068825 0.345730
v -0.023100 0.068809 0.336760
v 0.169435 -0.069510 0.441901
v 0.071124 0.164685 0.441953
v -0.169435 0.069509 0.441901
v -0.071124 -0.164687 0.441953
v -0.090838 -0.022757 0.406819
v -0.027343 -0.086266 0.406808
v -0.090839 0.022764 0.406819
v 0.027347 -0.086267 0.406808
v 0.090839 -0.022761 0.406819
v 0.090837 0.022760 0.406820
v 0.027342 0.086269 0.406808
v -0.027347 0.086270 0.406807
v -0.000001 0.000001 0.681834
v -0.229852 -0.094520 0.333683
v -0.096300 0.224523 0.333833
v 0.096300 -0.224525 0.333833
v 0.229852 0.094518 0.333683
vt 0.311693 0.265910
vt 0.315852 0.265910
vt 0.313770 0.264802
vt 0.304213 0.265909
vt 0.304213 0.265909
vt 0.323328 0.265909
vt 0.323328 0.265909
vt 0.316573 0.268086
vt 0.326674 0.268086
vt 0.326674 0.281234
vt 0.316573 0.281234
vt 0.311693 0.265910
vt 0.326674 0.268086
vt 0.316573 0.268086
vt 0.316573 0.281234
vt 0.326674 0.281234
vt 0.310967 0.268086
vt 0.300871 0.268086
vt 0.300871 0.281234
vt 0.310967 0.281234
vt 0.300871 0.268086
vt 0.310967 0.268086
vt 0.310967 0.281234
vt 0.300871 0.281234
vt 0.315852 0.265910
vt 0.324083 0.306403
vt 0.344229 0.301165
vt 0.353706 0.494582
vt 0.330465 0.264906
vt 0.330460 0.263741
vt 0.334688 0.319715
vt 0.334688 0.319715
vt 0.346005 0.259531
vt 0.344229 0.254290
vt 0.368216 0.494582
vt 0.283312 0.254290
vt 0.303462 0.259528
vt 0.290856 0.494582
vt 0.342240 0.288562
vt 0.321314 0.288562
vt 0.306549 0.288562
vt 0.324083 0.259528
vt 0.336694 0.494582
vt 0.284737 0.288562
vt 0.285301 0.288562
vt 0.259329 0.494582
vt 0.316573 0.255533
vt 0.326674 0.255533
vt 0.342808 0.288562
vt 0.320992 0.288562
vt 0.300871 0.255533
vt 0.310967 0.255533
vt 0.306227 0.288562
vt 0.310967 0.255533
vt 0.300871 0.255533
vt 0.326674 0.255533
vt 0.316573 0.255533
vt 0.303873 0.254280
vt 0.281535 0.259531
vt 0.330465 0.311781
vt 0.318490 0.310619
vt 0.318375 0.311740
vt 0.330460 0.310616
vt 0.330626 0.494582
vt 0.346005 0.306406
vt 0.323667 0.301155
vt 0.297085 0.311781
vt 0.309051 0.310619
vt 0.273839 0.494582
vt 0.303462 0.306403
vt 0.283312 0.301165
vt 0.281535 0.306406
vt 0.303873 0.301155
vt 0.296915 0.494582
vt 0.309165 0.311740
vt 0.297089 0.310616
vt 0.319291 0.319716
vt 0.313770 0.494582
vt 0.318490 0.263744
vt 0.319291 0.319716
vt 0.297089 0.263741
vt 0.309165 0.264865
vt 0.308254 0.319716
vt 0.292853 0.319715
vt 0.309051 0.263744
vt 0.297085 0.264906
vt 0.292853 0.319715
vt 0.308254 0.319716
vt 0.318375 0.264865
vt 0.323667 0.254280
vn 0.5077 0.2284 -0.8307
vn 0.5077 -0.2284 -0.8307
vn 0.0000 -0.0000 -1.0000
vn -0.2251 0.5195 -0.8243
vn 0.2252 0.5195 -0.8243
vn 0.2251 -0.5195 -0.8243
vn -0.2252 -0.5195 -0.8243
vn -0.8760 -0.3530 -0.3285
vn -0.3571 -0.8773 -0.3207
vn -0.3824 -0.9240 -0.0000
vn -0.7067 -0.7075 -0.0000
vn -0.5077 0.2284 -0.8307
vn 0.3571 -0.8773 -0.3207
vn 0.8760 -0.3530 -0.3285
vn 0.7067 -0.7075 0.0000
vn 0.3824 -0.9240 0.0000
vn 0.8760 0.3530 -0.3285
vn 0.3571 0.8773 -0.3207
vn 0.3824 0.9240 0.0000
vn 0.7067 0.7075 0.0000
vn -0.3571 0.8773 -0.3207
vn -0.8760 0.3530 -0.3285
vn -0.7067 0.7075 -0.0000
vn -0.3824 0.9240 -0.0000
vn -0.5077 -0.2284 -0.8307
vn 1.0000 0.0000 0.0000
vn -1.0000 -0.0001 -0.0000
vn -0.7023 -0.6661 -0.2514
vn -0.3813 -0.8852 -0.2665
vn -0.0227 -0.9661 -0.2571
vn 0.3761 -0.9264 0.0202
vn -0.3802 -0.9247 0.0217
vn -0.1799 0.2120 0.9606
vn -0.3974 0.0797 0.9142
vn -0.1234 0.2430 0.9621
vn -0.3401 0.0733 0.9375
vn -0.1901 -0.2051 0.9601
vn -0.2345 -0.1284 0.9636
vn 0.2760 -0.6879 -0.6713
vn 0.7688 -0.3049 -0.5621
vn 0.0761 -0.8698 -0.4876
vn 0.6847 0.2727 -0.6759
vn 0.8713 0.0633 -0.4867
vn 0.3401 -0.0733 0.9375
vn 0.1901 0.2051 0.9601
vn 0.2345 0.1284 0.9636
vn 0.3049 0.7691 -0.5617
vn -0.2760 0.6879 -0.6713
vn -0.0761 0.8698 -0.4876
vn -0.5743 -0.2643 -0.7748
vn -0.2513 -0.5808 -0.7743
vn -0.3049 -0.7692 -0.5617
vn -0.6847 -0.2727 -0.6759
vn -0.2575 0.5839 -0.7699
vn -0.5712 0.2543 -0.7805
vn -0.7688 0.3049 -0.5621
vn 0.5743 0.2643 -0.7748
vn 0.2513 0.5808 -0.7743
vn 0.2575 -0.5839 -0.7699
vn 0.5712 -0.2543 -0.7805
vn -0.0764 -0.3426 0.9364
vn 0.1799 -0.2120 0.9606
vn 0.1234 -0.2430 0.9621
vn -0.8713 -0.0633 -0.4867
vn 0.2789 0.6070 0.7441
vn 0.4178 0.5306 0.7375
vn 0.3107 0.5912 0.7443
vn -0.5976 0.2679 0.7557
vn -0.5392 0.3774 0.7529
vn -0.5793 0.3045 0.7561
vn 0.6589 -0.7052 -0.2620
vn -0.2789 -0.6070 0.7442
vn -0.4178 -0.5306 0.7375
vn -0.3107 -0.5912 0.7443
vn 0.7023 0.6661 -0.2514
vn -0.6589 0.7052 -0.2620
vn 0.5976 -0.2679 0.7557
vn 0.5392 -0.3774 0.7529
vn 0.5793 -0.3045 0.7561
vn 0.4961 0.5310 0.6870
vn 0.6424 -0.1656 0.7483
vn -0.0349 -0.7789 0.6262
vn -0.9758 -0.0081 -0.2183
vn -0.7633 0.0429 0.6446
vn 0.5063 -0.5085 0.6964
vn -0.0154 0.9771 -0.2123
vn -0.1424 -0.6647 0.7334
vn 0.0349 0.7789 0.6262
vn -0.4961 -0.5310 0.6870
vn 0.9758 0.0081 -0.2183
vn -0.6424 0.1656 0.7483
vn 0.7633 -0.0429 0.6446
vn 0.0154 -0.9771 -0.2123
vn -0.5063 0.5085 0.6964
vn 0.1424 0.6647 0.7334
vn 0.9279 -0.3726 0.0135
vn -0.0000 -0.0000 1.0000
vn -0.6843 -0.6884 -0.2405
vn -0.9311 -0.3645 0.0125
vn -0.7040 0.6677 -0.2419
vn -0.8811 0.3740 -0.2895
vn -0.9279 0.3727 0.0135
vn -0.3761 0.9264 0.0201
vn 0.6843 0.6884 -0.2406
vn 0.3813 0.8852 -0.2666
vn 0.3802 0.9247 0.0216
vn 0.9311 0.3645 0.0125
vn 0.7041 -0.6677 -0.2418
vn 0.8811 -0.3740 -0.2894
vn -0.9528 0.0295 -0.3022
vn 0.0227 0.9661 -0.2572
vn 0.9528 -0.0295 -0.3022
vn 0.3974 -0.0797 0.9142
vn 0.3710 0.9249 -0.0833
vn -0.9211 0.3832 -0.0686
vn -0.9792 0.1960 -0.0518
vn 0.0429 0.4323 0.9007
vn -0.3710 -0.9249 -0.0833
vn -0.1917 -0.9787 -0.0733
vn 0.9211 -0.3832 -0.0686
vn 0.9792 -0.1960 -0.0518
vn 0.0764 0.3426 0.9364
vn -0.0429 -0.4323 0.9007
vn 0.1917 0.9787 -0.0733
usemtl actionfigure
s 1
f 21/1/1 23/2/2 9/3/3
f 17/4/4 19/5/5 9/3/3
f 25/6/6 10/7/7 9/3/3
f 12/8/8 11/9/9 1/10/10 2/11/11
f 23/2/2 25/6/6 9/3/3
f 19/5/5 21/1/1 9/3/3
f 15/12/12 17/4/4 9/3/3
f 24/13/13 22/14/14 7/15/15 8/16/16
f 20/17/17 18/18/18 5/19/19 6/20/20
f 16/21/21 14/22/22 3/23/23 4/24/24
f 11/9/9 24/13/13 8/16/16 1/10/10
f 13/25/25 15/12/12 9/3/3
f 22/14/14 20/17/17 6/20/26 7/15/26
f 18/18/18 16/21/21 4/24/24 5/19/19
f 14/22/22 12/8/8 2/11/27 3/23/27
f 13/25/25 10/7/7 11/9/9 12/8/8
f 15/12/12 13/25/25 12/8/8 14/22/22
f 17/4/4 15/12/12 14/22/22 16/21/21
f 19/5/5 17/4/4 16/21/21 18/18/18
f 21/1/1 19/5/5 18/18/18 20/17/17
f 23/2/2 21/1/1 20/17/17 22/14/14
f 25/6/6 23/2/2 22/14/14 24/13/13
f 10/7/7 25/6/6 24/13/13 11/9/9
f 10/7/7 13/25/25 9/3/3
f 33/26/28 42/27/28 53/28/28
f 28/29/29 26/30/30 57/31/31 55/32/32
f 30/33/33 42/34/34 65/35/35
f 35/36/36 31/37/37 66/38/38
f 43/39/39 44/40/40 65/35/41
f 44/40/40 45/41/42 66/38/43
f 42/34/44 33/42/45 63/43/46
f 36/44/47 37/45/48 64/46/49
f 2/47/50 1/48/51 39/49/52 40/50/53
f 4/51/54 3/52/55 38/53/56 37/45/48
f 6/54/57 5/55/58 36/44/47 45/41/42
f 8/56/59 7/57/60 44/40/40 43/39/39
f 3/52/55 2/47/50 40/50/53 38/53/56
f 5/55/58 4/51/54 37/45/48 36/44/47
f 7/57/60 6/54/57 45/41/42 44/40/40
f 1/48/51 8/56/59 43/39/39 39/49/52
f 41/58/61 32/59/62 64/46/63
f 38/53/56 40/50/53 63/43/64
f 28/60/65 29/61/66 53/28/67
f 46/62/68 26/63/69 50/64/70
f 30/65/71 34/66/71 50/64/71
f 48/67/72 47/68/73 51/69/74
f 31/70/75 35/71/75 51/69/75
f 32/72/76 41/73/76 52/74/76
f 27/75/77 49/76/78 52/74/79
f 49/76/80 32/72/80 52/74/80
f 29/61/81 27/75/77 52/74/79
f 33/26/82 29/61/82 52/74/82
f 41/73/83 33/26/83 52/74/83
f 32/72/84 49/76/84 51/69/84
f 47/68/85 31/70/85 51/69/85
f 35/71/86 32/72/86 51/69/86
f 49/76/87 48/67/72 51/69/74
f 31/70/88 47/68/88 50/64/88
f 26/63/89 30/65/89 50/64/89
f 34/66/90 31/70/90 50/64/90
f 47/68/91 46/62/68 50/64/70
f 30/65/92 26/63/92 53/28/92
f 42/27/93 30/65/93 53/28/93
f 29/61/94 33/26/94 53/28/94
f 26/63/95 28/60/65 53/28/67
f 57/31/31 58/77/96 62/78/97
f 29/79/98 28/29/29 55/32/32 54/80/99
f 49/81/100 27/82/101 56/83/102 61/84/103
f 47/85/104 48/86/105 60/87/106 59/88/107
f 26/30/108 46/89/109 58/77/96 57/31/31
f 27/82/101 29/79/110 54/80/99 56/83/102
f 48/86/105 49/81/111 61/84/103 60/87/106
f 46/89/109 47/85/112 59/88/107 58/77/96
f 56/83/102 54/80/99 62/78/97
f 60/87/106 61/84/103 62/78/97
f 58/77/96 59/88/107 62/78/97
f 55/32/32 57/31/31 62/78/97
f 54/80/99 55/32/32 62/78/97
f 61/84/103 56/83/102 62/78/97
f 59/88/107 60/87/106 62/78/97
f 32/59/62 35/36/113 64/46/63
f 37/45/48 38/53/56 64/46/49
f 35/71/114 36/44/47 64/46/49
f 38/53/56 41/73/115 64/46/116
f 33/42/45 41/58/117 63/43/46
f 40/50/53 39/49/52 63/43/64
f 41/73/115 38/53/56 63/43/64
f 39/49/52 42/27/118 63/43/119
f 44/40/40 34/66/120 65/35/121
f 34/90/122 30/33/33 65/35/35
f 39/49/52 43/39/39 65/35/41
f 42/27/118 39/49/52 65/35/41
f 31/37/37 34/90/123 66/38/38
f 45/41/42 36/44/47 66/38/43
f 34/66/120 44/40/40 66/38/43
f 36/44/47 35/71/114 66/38/124
